<?xml version="1.0" standalone="no"?>
<!DOCTYPE svg PUBLIC "-//W3C//DTD SVG 1.1//EN" "http://www.w3.org/Graphics/SVG/1.1/DTD/svg11.dtd" >
<svg xmlns="http://www.w3.org/2000/svg" xmlns:xlink="http://www.w3.org/1999/xlink" version="1.1">
<metadata>
Created by FontForge 20170731 at Wed Aug 20 01:37:07 2003
 By ,,,
08/03 Luz, HP New Futura   The Hoefler Type Foundry, 1998-2003.
</metadata>
<defs>
<font id="LuzSans-Medium" horiz-adv-x="325" >
  <font-face 
    font-family="LuzSans-Medium"
    font-weight="400"
    font-stretch="normal"
    units-per-em="1000"
    panose-1="2 0 6 3 4 0 0 2 0 3"
    ascent="800"
    descent="-200"
    x-height="493"
    cap-height="754"
    bbox="-65 -283 1187 994"
    underline-thickness="98"
    underline-position="-231"
    unicode-range="U+0005-2122"
  />
<missing-glyph horiz-adv-x="500" 
 />
    <glyph glyph-name=".notdef" horiz-adv-x="500" 
 />
    <glyph glyph-name=".null" horiz-adv-x="0" 
 />
    <glyph glyph-name="nonmarkingreturn" horiz-adv-x="256" 
 />
    <glyph glyph-name="breve" horiz-adv-x="476" 
d="M418 730q-2 -35 -17 -63.5t-39.5 -48.5t-56.5 -31t-68 -11t-68.5 11t-57 31t-39.5 48.5t-17 63.5h90q6 -32 30.5 -55.5t61.5 -23.5t62 23.5t31 55.5h88v0z" />
    <glyph glyph-name="dotaccent" horiz-adv-x="271" 
d="M201 662q0 -26 -20 -45t-46 -19q-27 0 -46 19t-19 45q0 27 19 46.5t46 19.5q26 0 46 -19.5t20 -46.5z" />
    <glyph glyph-name="ring" horiz-adv-x="350" 
d="M283 662q0 -45 -29.5 -75t-79.5 -30t-78.5 30t-28.5 75q0 47 29.5 76t78.5 29q51 0 79.5 -30t28.5 -75zM226 662q0 22 -14 37t-37 15t-36.5 -15t-13.5 -37t13 -36.5t36 -14.5q24 0 38 14.5t14 36.5z" />
    <glyph glyph-name="hungarumlaut" unicode="&#xa;" horiz-adv-x="479" 
d="M290 582h-76l102 168h121zM130 582h-76l92 168h121z" />
    <glyph glyph-name="ogonek" horiz-adv-x="289" 
d="M240 -156q-14 -7 -31 -11.5t-35 -4.5q-51 0 -82.5 27t-31.5 72q0 35 22 64.5t60 52.5h64v-2q-31 -20 -52 -44t-21 -48q0 -25 17 -40.5t43 -15.5q14 0 25 4.5t22 12.5v-67v0z" />
    <glyph glyph-name="caron" horiz-adv-x="485" 
d="M298 578h-107l-140 173h108l87 -110l85 110h106z" />
    <glyph glyph-name="dotlessi" unicode="&#xd;" horiz-adv-x="256" 
d="M71 0v494h114v-494h-114z" />
    <glyph glyph-name="fraction" horiz-adv-x="464" 
d="M31 -6l-71 6l440 762l73 -5z" />
    <glyph glyph-name="fi" horiz-adv-x="577" 
d="M393 637q0 48 -27.5 75t-74.5 27q-41 0 -70 -24.5t-29 -80.5v-141h123v-97h-123v-396h-114v396h-58v97h58v145q0 47 15 84t43 63t67.5 40t88.5 14q103 0 159 -55t56 -147h-114zM393 0v493h114v-493h-114z" />
    <glyph glyph-name="fl" horiz-adv-x="577" 
d="M393 0v634q0 49 -26.5 77t-74.5 28q-47 0 -73.5 -27t-26.5 -78v-141h123v-97h-123v-396h-114v396h-58v97h58v146q0 45 14.5 82t42.5 63t67.5 40.5t90.5 14.5q101 0 157.5 -54.5t56.5 -145.5v-639h-114z" />
    <glyph glyph-name="Lslash" horiz-adv-x="485" 
d="M216 106h238v-106h-360v340l-86 -49v111l86 49v303h122v-232l95 53v-111l-95 -54v-304z" />
    <glyph glyph-name="lslash" horiz-adv-x="327" 
d="M217 -1l-114 1v342q0 1 -14.5 -7t-31.5 -18l-46 -26v111l92 52v374h114v-309l98 56v-111l-98 -55v-410z" />
    <glyph glyph-name="Zcaron" horiz-adv-x="637" 
d="M218 106h382v-106h-589l409 648h-356v106h562zM388 809h-107l-140 173h108l87 -111l85 111h106z" />
    <glyph glyph-name="zcaron" horiz-adv-x="504" 
d="M200 96h281v-96h-474l294 397h-258v97h451zM320 579h-107l-140 173h108l87 -111l85 111h106z" />
    <glyph glyph-name="space" unicode=" " horiz-adv-x="256" 
 />
    <glyph glyph-name="space" unicode="&#xa0;" horiz-adv-x="256" 
 />
    <glyph glyph-name="exclam" unicode="!" horiz-adv-x="349" 
d="M119 221v533h110v-533h-110zM248 56q0 -14 -6 -27t-16 -23t-23 -15.5t-28 -5.5t-28 5.5t-22.5 15.5t-15.5 23t-6 27q0 29 21.5 50.5t50.5 21.5t51 -21.5t22 -50.5z" />
    <glyph glyph-name="quotedbl" unicode="&#x22;" horiz-adv-x="511" 
d="M332 475l-76 4l99 279l110 -4zM139 475l-76 4l99 279l110 -4z" />
    <glyph glyph-name="numbersign" unicode="#" horiz-adv-x="704" 
d="M648 462h-121q0 -5 -4 -33l-8.5 -59.5t-8.5 -57l-4 -25.5h118l-11 -81h-117l-29 -206h-86l29 206h-155l-28 -206h-87l29 206h-121l12 81h120q7 46 12 83q5 32 8.5 59.5t4.5 32.5h-117l12 81h117q0 3 1.5 13.5t3.5 26t4.5 34.5t5.5 38q6 45 13 99h87q-8 -54 -14 -99
q-3 -19 -5.5 -38t-4.5 -34.5t-4 -26t-2 -13.5h155q0 3 1.5 13.5t3.5 26t4.5 34.5t5.5 38q6 45 14 99h86q-8 -54 -14 -99q-3 -19 -5.5 -38t-4.5 -34.5t-3.5 -26t-1.5 -13.5h121zM287 462q-1 -5 -4.5 -32.5t-8.5 -59.5q-5 -37 -12 -83h155q7 46 12 83q5 32 8.5 59.5t4.5 32.5
h-155z" />
    <glyph glyph-name="dollar" unicode="$" horiz-adv-x="566" 
d="M521 220q0 -88 -52 -150t-143 -79v-113h-79v107q-72 3 -131.5 36.5t-96.5 91.5l69 82q36 -50 78.5 -76.5t94.5 -26.5q66 0 101 33t35 88q0 41 -25 66t-62 43t-81 34t-81 40.5t-62 62t-25 98.5q0 39 13 74t37.5 62.5t59 46.5t76.5 25v106h79v-105q57 -5 102.5 -27.5
t74.5 -57.5l-63 -92q-32 33 -67.5 52.5t-73.5 19.5q-55 0 -86 -28t-31 -68q0 -39 25 -62.5t63 -40.5t81.5 -33t81.5 -41.5t63 -64.5t25 -103z" />
    <glyph glyph-name="percent" unicode="%" horiz-adv-x="813" 
d="M365 570q0 -40 -13 -75t-35.5 -61t-54 -40.5t-68.5 -14.5t-68 14.5t-53 40.5t-34.5 61t-12.5 75q0 41 12.5 76t35 61t54 40.5t68.5 14.5t68 -14.5t53.5 -40.5t35 -61t12.5 -76zM220 -6l-70 6l441 762l71 -5zM786 183q0 -41 -12.5 -76t-35 -60.5t-53.5 -40t-68 -14.5
t-68 14.5t-53.5 40t-35 60.5t-12.5 76t12.5 75.5t35 60.5t54 40.5t68.5 14.5t68 -14.5t53 -40.5t34.5 -60.5t12.5 -75.5zM286 570q0 52 -24.5 87t-65.5 35q-42 0 -67.5 -34.5t-25.5 -87.5q0 -25 6.5 -47.5t18.5 -38.5t29 -25.5t38 -9.5q42 0 66.5 34.5t24.5 86.5zM708 183
q0 51 -24.5 86t-66.5 35t-66.5 -34.5t-24.5 -86.5t24.5 -87t66.5 -35t66.5 34.5t24.5 87.5z" />
    <glyph glyph-name="ampersand" unicode="&#x26;" horiz-adv-x="703" 
d="M568 0l-70 81q-56 -51 -113.5 -74.5t-122.5 -23.5q-46 0 -87.5 15.5t-73 43.5t-50 67.5t-18.5 86.5q0 71 38.5 128t133.5 100q-41 44 -59.5 84t-18.5 81q0 38 14 71.5t39.5 58t62 38.5t80.5 14t78.5 -14t58 -37.5t36 -54.5t12.5 -64q0 -65 -40.5 -116t-115.5 -86
l153 -183q23 29 47.5 67.5t40.5 69.5l76 -53q-9 -18 -21 -38.5t-25.5 -40.5t-27 -39.5t-27.5 -35.5l126 -146h-126zM409 592q0 17 -6 33.5t-16.5 29.5t-26 20.5t-34.5 7.5q-43 0 -67.5 -27t-24.5 -65q0 -30 16 -64.5t47 -66.5q57 26 84.5 60t27.5 72zM261 359
q-64 -31 -90 -65.5t-26 -84.5q0 -25 10.5 -47.5t29 -39.5t43.5 -27t54 -10q35 0 73 16t78 52z" />
    <glyph glyph-name="quotesingle" unicode="'" horiz-adv-x="318" 
d="M139 475l-76 4l99 279l110 -4z" />
    <glyph glyph-name="parenleft" unicode="(" horiz-adv-x="310" 
d="M241 -212q-43 45 -79.5 101t-63 119.5t-41 133.5t-14.5 142t14.5 141.5t41 133t63 119.5t79.5 101l77 -63q-39 -45 -70.5 -97t-53 -108t-33.5 -113.5t-12 -112.5q0 -115 44 -226t125 -208z" />
    <glyph glyph-name="parenright" unicode=")" horiz-adv-x="310" 
d="M258 284q0 -72 -14.5 -142t-41 -133.5t-62.5 -119.5t-80 -101l-76 63q81 97 125 208t44 226t-43.5 225t-125.5 206l76 63q44 -45 80 -101t62.5 -119.5t41 -133t14.5 -141.5z" />
    <glyph glyph-name="asterisk" unicode="*" horiz-adv-x="402" 
d="M334 466l-104 62l1 -121h-65l1 121l-105 -62l-32 57l106 59l-106 59l32 56l105 -62l-1 121h65l-1 -121l104 62l32 -56l-105 -59l105 -59z" />
    <glyph glyph-name="plus" unicode="+" horiz-adv-x="645" 
d="M367 331v-200h-97v200h-200v97h200v200h97v-200h200v-97h-200z" />
    <glyph glyph-name="comma" unicode="," 
d="M90 71q0 28 19.5 47t48.5 19q35 0 57.5 -28t22.5 -71q0 -30 -10 -61.5t-27.5 -61.5t-41.5 -56.5t-52 -46.5l-42 33q37 33 63 75.5t31 88.5q-31 -2 -50 16.5t-19 45.5z" />
    <glyph glyph-name="hyphen" unicode="-" horiz-adv-x="420" 
d="M50 272v96h320v-96h-320z" />
    <glyph glyph-name="period" unicode="." horiz-adv-x="315" 
d="M226 54q0 -28 -20.5 -48.5t-48.5 -20.5q-29 0 -49 20.5t-20 48.5t20 48.5t49 20.5q28 0 48.5 -20.5t20.5 -48.5z" />
    <glyph glyph-name="slash" unicode="/" horiz-adv-x="547" 
d="M79 -221l-91 7l475 978l90 -6z" />
    <glyph glyph-name="zero" unicode="0" horiz-adv-x="653" 
d="M619 378q0 -73 -19.5 -143.5t-57.5 -126t-93.5 -89.5t-126.5 -34q-72 0 -126 34t-90 89.5t-54.5 126t-18.5 143.5q0 74 20 144t58 125t93.5 88.5t125.5 33.5t124 -33.5t90.5 -88.5t55.5 -125t19 -144zM501 378q0 48 -11 98t-32.5 91.5t-53.5 67.5t-75 26q-44 0 -77.5 -26
t-56 -66.5t-33.5 -91t-11 -99.5q0 -51 10.5 -102t32 -92.5t54 -67t75.5 -25.5q44 0 77.5 25.5t56 66t33.5 92t11 103.5z" />
    <glyph glyph-name="one" unicode="1" horiz-adv-x="391" 
d="M149 0v648h-114l12 106h223v-754h-121z" />
    <glyph glyph-name="two" unicode="2" horiz-adv-x="627" 
d="M564 530q0 -64 -29 -119.5t-84 -114.5l-180 -192h297v-104h-529l-2 2l310 337q53 57 76 102.5t23 92.5q0 57 -37 92t-102 35q-59 0 -94.5 -37t-35.5 -100v-10h-119v10q2 59 21 104.5t52 76.5t79.5 47.5t102.5 16.5q57 0 103.5 -17.5t79 -49.5t50.5 -75.5t18 -96.5z" />
    <glyph glyph-name="three" unicode="3" horiz-adv-x="599" 
d="M544 219q0 -50 -18 -92.5t-50.5 -74t-78 -49.5t-99.5 -18q-53 0 -99 17.5t-80.5 47.5t-55 70.5t-21.5 87.5v8h122v-8q3 -51 38 -84.5t90 -33.5q58 0 95 36.5t37 95.5q0 58 -39 92.5t-100 35.5h-20v88h21q55 2 89 35t34 85q0 47 -32.5 78.5t-84.5 31.5t-81 -29t-31 -76v-9
h-113v9q7 93 67 149.5t168 56.5q48 0 89 -16t71 -43.5t47 -64.5t17 -79q0 -53 -27 -96t-75 -68v-2q28 -11 50.5 -30.5t38 -43.5t23.5 -51.5t8 -55.5z" />
    <glyph glyph-name="four" unicode="4" horiz-adv-x="633" 
d="M493 179v-179h-115v179h-354v63l377 526h92v-491h99v-98h-99zM378 575h-2l-215 -297v-1h217v298z" />
    <glyph glyph-name="five" unicode="5" horiz-adv-x="603" 
d="M549 257q0 -56 -21 -105.5t-58.5 -86.5t-90.5 -58.5t-116 -21.5q-143 0 -239 98l44 100q46 -43 91 -66.5t96 -23.5q35 0 66 12t54 34.5t36.5 53.5t13.5 69q0 33 -13 61.5t-36.5 49.5t-56.5 33t-74 12q-45 0 -85.5 -12t-75.5 -30l-7 4l69 374h367v-105h-274l-33 -151
q35 15 84 15q60 0 107.5 -18.5t81.5 -52t52 -80.5t18 -105z" />
    <glyph glyph-name="six" unicode="6" horiz-adv-x="653" 
d="M614 257q0 -55 -21 -104t-59 -86.5t-91 -59.5t-118 -22q-60 0 -112.5 20.5t-91.5 57t-62 86.5t-23 109q0 60 22 113.5t64 108.5l201 277l130 -10l-191 -251l2 -2q44 22 96 22q56 0 102.5 -19.5t80 -54.5t52.5 -82t19 -103zM498 255q0 35 -13.5 66t-37 54t-55 36.5
t-66.5 13.5q-36 0 -67.5 -13.5t-55 -36.5t-37 -54t-13.5 -66t13.5 -66t37 -54.5t55 -37t67.5 -13.5q35 0 66.5 13.5t55 37t37 54.5t13.5 66z" />
    <glyph glyph-name="seven" unicode="7" horiz-adv-x="602" 
d="M195 -2l-131 6l353 644h-381v106h560z" />
    <glyph glyph-name="eight" unicode="8" horiz-adv-x="605" 
d="M554 198q0 -48 -19 -87.5t-53 -67t-79.5 -43t-99.5 -15.5t-99.5 15.5t-79 43t-52.5 67t-19 87.5q0 67 31 116t93 75v2q-25 12 -45 30t-34.5 40.5t-22 48t-7.5 52.5q0 45 17.5 83t49 65.5t74.5 43t94 15.5t94.5 -15.5t75 -43t49 -65.5t17.5 -83q0 -27 -7.5 -52.5t-22 -48
t-34.5 -40.5t-45 -30v-2q62 -26 93 -75t31 -116zM426 554q0 25 -9.5 47t-26 38.5t-39 26t-48.5 9.5q-25 0 -47.5 -9.5t-39 -26t-26 -38.5t-9.5 -47t9.5 -46.5t26 -38t38.5 -26t48 -9.5t48.5 9.5t39 26t26 38t9.5 46.5zM437 215q0 27 -10.5 50.5t-29 41t-43 28t-51.5 10.5
t-51 -10.5t-42 -28t-28.5 -41t-10.5 -50.5t10.5 -50.5t28.5 -41t42 -27.5t51 -10t51.5 10t43 27.5t29 41t10.5 50.5z" />
    <glyph glyph-name="nine" unicode="9" horiz-adv-x="653" 
d="M616 493q0 -58 -21 -109.5t-61 -105.5l-205 -280l-129 8l189 250l-2 2q-21 -10 -42.5 -14t-47.5 -4q-54 0 -101.5 19t-82.5 53.5t-55 81.5t-20 102q0 59 22 108.5t61 86.5t92.5 57.5t116.5 20.5q61 0 113 -21t90.5 -57.5t60.5 -87t22 -110.5zM499 499q0 35 -13.5 66
t-37 54t-54.5 36.5t-67 13.5t-67 -13.5t-54.5 -36.5t-37 -54t-13.5 -66t13 -66t36.5 -54t55 -36.5t67.5 -13.5t67.5 13.5t55 36.5t36.5 54t13 66z" />
    <glyph glyph-name="colon" unicode=":" 
d="M231 431q0 -28 -20.5 -48.5t-48.5 -20.5t-48 20.5t-20 48.5q0 29 20 49.5t48 20.5t48.5 -20.5t20.5 -49.5zM231 54q0 -28 -20.5 -48.5t-48.5 -20.5t-48 20.5t-20 48.5t20 48.5t48 20.5t48.5 -20.5t20.5 -48.5z" />
    <glyph glyph-name="semicolon" unicode=";" 
d="M234 431q0 -28 -20.5 -48.5t-48.5 -20.5t-48.5 20.5t-20.5 48.5q0 29 20.5 49.5t48.5 20.5t48.5 -20.5t20.5 -49.5zM90 71q0 28 19 47t48 19q35 0 57.5 -28t22.5 -71q0 -30 -10 -61.5t-27.5 -61.5t-41.5 -56.5t-52 -46.5l-41 33q37 33 63 75.5t31 88.5q-31 -2 -50 16.5
t-19 45.5z" />
    <glyph glyph-name="less" unicode="&#x3c;" horiz-adv-x="593" 
d="M227 382l291 -169l-55 -81l-407 239v17l407 237l56 -80z" />
    <glyph glyph-name="equal" unicode="=" horiz-adv-x="645" 
d="M70 432v99h496v-99h-496zM70 228v97h496v-97h-496z" />
    <glyph glyph-name="greater" unicode="&#x3e;" horiz-adv-x="605" 
d="M116 132l-55 81l291 169l-292 163l56 80l408 -237v-17z" />
    <glyph glyph-name="question" unicode="?" horiz-adv-x="538" 
d="M497 537q0 -48 -15.5 -87t-43.5 -68t-66.5 -47t-83.5 -23v-95h-113v175h28q80 0 129 38t49 107q0 28 -10 52t-27.5 41t-41.5 27t-53 10q-43 0 -74 -21t-49 -53l-96 33q22 69 78 106t133 37q55 0 101.5 -17.5t81 -49t54 -73.5t19.5 -92zM305 56q0 -29 -20.5 -50t-50.5 -21
q-29 0 -50.5 21t-21.5 50t21.5 50.5t50.5 21.5q30 0 50.5 -21.5t20.5 -50.5z" />
    <glyph glyph-name="at" unicode="@" horiz-adv-x="877" 
d="M840 420q0 -49 -14 -92.5t-38 -75t-57.5 -50t-72.5 -18.5q-47 0 -77 20.5t-39 60.5h-2q-20 -30 -58 -53.5t-89 -23.5q-32 0 -61 11.5t-51.5 32.5t-35.5 50.5t-13 66.5q0 47 16.5 86.5t44.5 68.5t65 45t77 16q44 0 75 -20t45 -48h2l12 54h85l-41 -206q-8 -40 5.5 -69
t49.5 -29q27 0 48.5 13.5t35.5 37.5t21.5 56t7.5 68q0 59 -24 111.5t-67.5 92t-103.5 63t-132 23.5q-80 0 -145.5 -27t-112 -75t-72 -113t-25.5 -140q0 -69 25.5 -127t72 -100t110.5 -65.5t141 -23.5q68 0 126 17t99 42v-63q-39 -23 -99 -37.5t-129 -14.5q-77 0 -149.5 24
t-129 71t-91 116.5t-34.5 160.5q0 92 33 168t89 130t130 84t156 30q86 0 158 -26.5t124 -73.5t80.5 -111t28.5 -138zM535 399q0 39 -26.5 66t-67.5 27q-28 0 -51 -10.5t-40 -28.5t-26.5 -42.5t-9.5 -52.5q0 -44 28.5 -70.5t72.5 -26.5q27 0 49.5 11.5t38 30.5t24 44t8.5 52z
" />
    <glyph glyph-name="A" unicode="A" horiz-adv-x="710" 
d="M578 0l-74 189h-302l-75 -189h-127l312 766h88l309 -766h-131zM354 576h-1l-114 -289h228z" />
    <glyph glyph-name="B" unicode="B" horiz-adv-x="598" 
d="M562 215q0 -47 -16 -86.5t-46.5 -68t-76 -44.5t-104.5 -16h-247v754h215q111 0 170 -51.5t59 -142.5q0 -52 -27 -94t-78 -65v-2q34 -7 61.5 -23.5t47.5 -40.5t31 -54.5t11 -65.5zM403 549q0 51 -34.5 79t-101.5 28h-73v-221h81q63 0 95.5 31.5t32.5 82.5zM444 221
q0 53 -37 85.5t-113 32.5h-100v-242h98q78 0 115 35t37 89z" />
    <glyph glyph-name="C" unicode="C" horiz-adv-x="689" 
d="M644 50q-50 -31 -102 -47.5t-108 -16.5q-91 0 -165 30.5t-126 84t-80.5 125t-28.5 152.5t28.5 152t80.5 124.5t125.5 84t162.5 30.5q60 0 114 -17.5t99 -49.5v-139l-2 -1q-37 44 -94 68.5t-117 24.5t-110 -20.5t-86 -57.5t-56.5 -88t-20.5 -111q0 -59 21 -110t58.5 -89
t88 -59.5t108.5 -21.5q27 0 56.5 6.5t57 18.5t52 28.5t42.5 36.5l2 -2v-136v0z" />
    <glyph glyph-name="D" unicode="D" horiz-adv-x="702" 
d="M670 377q0 -77 -29 -145.5t-80 -120t-121.5 -81.5t-153.5 -30h-214v754h214q83 0 153 -29.5t121.5 -80.5t80.5 -120t29 -147zM545 377q0 57 -18 106t-53 86t-86.5 58t-119.5 21h-74v-543h74q67 0 118.5 21.5t87 58t53.5 86t18 106.5z" />
    <glyph glyph-name="E" unicode="E" horiz-adv-x="526" 
d="M72 0v754h394v-106h-272v-205h262v-101h-262v-237h272v-105h-394z" />
    <glyph glyph-name="F" unicode="F" horiz-adv-x="491" 
d="M194 648v-206h232v-105h-232v-337h-122v754h368v-106h-246z" />
    <glyph glyph-name="G" unicode="G" horiz-adv-x="826" 
d="M793 392q0 -79 -14.5 -146t-62.5 -128q-54 -68 -130 -100.5t-166 -32.5q-84 0 -155 31.5t-122.5 85t-81 123.5t-29.5 148q0 83 29.5 155t82 125.5t125 84.5t157.5 31q112 0 201 -49t143 -143l-106 -53q-44 68 -103 102.5t-138 34.5q-57 0 -105.5 -23t-84 -62t-56 -90.5
t-20.5 -108.5t20.5 -109t56.5 -91t85 -62t106 -23q46 0 88 14t74 40t52.5 63t22.5 83h-220v100h351v0z" />
    <glyph glyph-name="H" unicode="H" horiz-adv-x="756" 
d="M565 0v349h-371v-349h-122v754h122v-306h371v306h121v-754h-121z" />
    <glyph glyph-name="I" unicode="I" horiz-adv-x="263" 
d="M72 0v754h122v-754h-122z" />
    <glyph glyph-name="J" unicode="J" horiz-adv-x="377" 
d="M319 182q0 -103 -49.5 -150t-132.5 -47q-79 0 -124 45l30 102q20 -20 42.5 -30t43.5 -10q34 0 51 23t17 80v559h122v-572v0z" />
    <glyph glyph-name="K" unicode="K" horiz-adv-x="646" 
d="M496 0l-291 343l-11 -10v-333h-122v754h122v-334h1l291 334h146l-324 -360l341 -394h-153z" />
    <glyph glyph-name="L" unicode="L" horiz-adv-x="443" 
d="M72 0v754h122v-649h238v-105h-360z" />
    <glyph glyph-name="M" unicode="M" horiz-adv-x="940" 
d="M802 0l-90 527h-2l-222 -539h-40l-216 540h-2l-96 -528h-120l145 766h97l214 -545l219 545h99l137 -766h-123z" />
    <glyph glyph-name="N" unicode="N" horiz-adv-x="834" 
d="M669 -12l-475 558h-2v-546h-120v758h92l475 -555h1v551h121v-766h-92z" />
    <glyph glyph-name="O" unicode="O" horiz-adv-x="860" 
d="M828 377q0 -81 -30 -152.5t-83 -125t-125.5 -84t-158.5 -30.5q-87 0 -160 31t-126.5 84t-83 125t-29.5 153t29.5 152t82.5 124.5t125.5 84t158.5 30.5t159 -30.5t126.5 -84t84 -125t30.5 -152.5zM704 377q0 59 -21.5 110.5t-58.5 90t-87.5 61t-108.5 22.5
q-59 0 -109 -21.5t-86 -59.5t-56.5 -90t-20.5 -112q0 -59 21 -111t58 -91t87.5 -61.5t108.5 -22.5q59 0 109 21.5t86.5 60t57 90.5t20.5 113z" />
    <glyph glyph-name="P" unicode="P" horiz-adv-x="566" 
d="M534 528q0 -50 -16 -91.5t-46.5 -71t-75.5 -45.5t-103 -16h-99v-304h-122v754h220q58 0 103 -16.5t76 -46.5t47 -71.5t16 -91.5zM413 528q0 58 -35.5 91t-116.5 33h-67v-247h67q81 0 116.5 32.5t35.5 90.5z" />
    <glyph glyph-name="Q" unicode="Q" horiz-adv-x="860" 
d="M828 377q0 -76 -26 -143.5t-74 -119.5l119 -123h-133l-59 61q-47 -32 -104 -49.5t-120 -17.5q-87 0 -160 31t-126.5 84t-83 125t-29.5 153t29.5 152t82.5 124.5t125.5 84t158.5 30.5t159 -30.5t126.5 -84t84 -125t30.5 -152.5zM704 377q0 59 -21.5 110.5t-58.5 90
t-87.5 61t-108.5 22.5q-59 0 -109 -21.5t-86 -59.5t-56.5 -90t-20.5 -112q0 -59 21 -111t58 -91t87.5 -61.5t108.5 -22.5q41 0 78 11.5t67 31.5l-167 178h132l104 -111q27 35 43 79.5t16 95.5z" />
    <glyph glyph-name="R" unicode="R" horiz-adv-x="577" 
d="M430 0l-222 323h-14v-323h-122v754h194q128 0 192 -58t64 -158q0 -79 -49 -135.5t-140 -69.5l239 -333h-142zM396 532q0 61 -38 92.5t-126 31.5h-38v-247h50q75 0 113.5 32.5t38.5 90.5z" />
    <glyph glyph-name="S" unicode="S" horiz-adv-x="560" 
d="M521 219q0 -49 -17.5 -92t-50.5 -74.5t-80.5 -49.5t-106.5 -18q-79 0 -141.5 31.5t-107.5 91.5l72 84q38 -50 79 -75.5t96 -25.5q32 0 56.5 9.5t41.5 25.5t26 37.5t9 45.5q0 40 -25.5 69.5t-87.5 56.5l-55 24q-79 32 -121.5 78.5t-42.5 118.5q0 44 16.5 82.5t46 67
t70.5 45t90 16.5q69 0 123.5 -24t89.5 -64l-61 -92q-33 32 -68 52.5t-77 20.5q-49 0 -79 -25.5t-30 -67.5q0 -20 6.5 -36t21 -29.5t37.5 -26t56 -26.5l56 -24q83 -35 120.5 -84t37.5 -122z" />
    <glyph glyph-name="T" unicode="T" horiz-adv-x="506" 
d="M310 648v-648h-121v648h-179v106h479v-106h-179z" />
    <glyph glyph-name="U" unicode="U" horiz-adv-x="716" 
d="M651 282q0 -140 -73 -219.5t-219 -79.5q-72 0 -127 21t-92 59.5t-55.5 94t-18.5 124.5v472h123v-449q0 -115 42.5 -165t132.5 -50q89 0 127.5 50t38.5 165v449h121v-472v0z" />
    <glyph glyph-name="V" unicode="V" horiz-adv-x="687" 
d="M370 -12h-57l-317 766h132l216 -553h2l217 553h129z" />
    <glyph glyph-name="W" unicode="W" horiz-adv-x="1035" 
d="M800 -12h-101l-179 556h-2l-190 -556h-100l-230 766h125l162 -563h2l193 569h79l187 -569h2l166 563h126z" />
    <glyph glyph-name="X" unicode="X" horiz-adv-x="636" 
d="M482 0l-165 286h-2l-170 -286h-136l241 382l-232 372h144l156 -276h2l161 276h141l-238 -372l238 -382h-140z" />
    <glyph glyph-name="Y" unicode="Y" horiz-adv-x="637" 
d="M379 310v-310h-121v310l-264 444h141l184 -328h2l181 328h141z" />
    <glyph glyph-name="Z" unicode="Z" horiz-adv-x="637" 
d="M218 105h382v-105h-589l409 648h-357v106h562z" />
    <glyph glyph-name="bracketleft" unicode="[" 
d="M58 -212v983h223v-95h-116v-792h116v-96h-223z" />
    <glyph glyph-name="backslash" unicode="\" horiz-adv-x="537" 
d="M461 -221l-474 979l90 6l475 -978z" />
    <glyph glyph-name="bracketright" unicode="]" 
d="M43 -212v96h116v792h-116v95h223v-983h-223z" />
    <glyph glyph-name="underscore" unicode="_" horiz-adv-x="500" 
d="M50 -188v98h400v-98h-400z" />
    <glyph glyph-name="grave" unicode="`" horiz-adv-x="327" 
d="M189 578l-139 168h129l102 -168h-92z" />
    <glyph glyph-name="a" unicode="a" horiz-adv-x="617" 
d="M446 0v72h-2q-21 -39 -69 -62t-102 -23q-49 0 -93 19t-76 53.5t-51 82.5t-19 106q0 53 18 100.5t50.5 82.5t77 55.5t97.5 20.5t97 -21t70 -60h2v67h113v-493h-113zM450 250q0 32 -11 61.5t-31 51.5t-49 35t-64 13q-36 0 -64.5 -13t-48.5 -35.5t-30.5 -52.5t-10.5 -63
t11 -62.5t31.5 -52.5t49.5 -36.5t64 -13.5q36 0 64.5 13.5t48 37t30 54t10.5 63.5z" />
    <glyph glyph-name="b" unicode="b" horiz-adv-x="617" 
d="M587 253q0 -58 -18.5 -107t-51 -84t-76.5 -55t-94 -20q-54 0 -100.5 22t-69.5 63h-2v-72h-115v827h115v-401h2q26 38 72.5 59.5t99.5 21.5t96.5 -19.5t75 -54t49 -81t17.5 -99.5zM479 247q0 33 -11 63t-31 52.5t-48.5 35.5t-63.5 13t-63.5 -13t-49 -35t-31.5 -51.5
t-11 -61.5q0 -33 10 -63.5t29.5 -54t48 -37t65.5 -13.5q35 0 64 13.5t49.5 36.5t31.5 52.5t11 62.5z" />
    <glyph glyph-name="c" unicode="c" horiz-adv-x="479" 
d="M443 30q-33 -23 -69.5 -33t-80.5 -10q-55 0 -103.5 18.5t-84.5 53t-57 82.5t-21 106q0 57 20 104.5t56 82t85 54t107 19.5q86 0 145 -43v-109q-23 23 -60.5 39.5t-79.5 16.5q-35 0 -65.5 -12t-53 -33t-35 -51t-12.5 -66t13 -66t36 -52t53.5 -34.5t66.5 -12.5
q44 0 79.5 15t60.5 40v-109v0z" />
    <glyph glyph-name="d" unicode="d" horiz-adv-x="623" 
d="M446 0v77h-2q-24 -42 -70 -66t-99 -24q-54 0 -99 19.5t-77.5 54t-50.5 81.5t-18 102q0 53 17.5 101t50 84t77.5 57t100 21q50 0 95.5 -21.5t74.5 -60.5h2v402h114v-827h-115zM450 250q0 31 -11 59.5t-31.5 50.5t-48.5 35t-62 13q-35 0 -63 -12.5t-47.5 -34t-30 -51
t-10.5 -63.5q0 -33 10.5 -62.5t30 -52t48 -35.5t63.5 -13q37 0 65 13.5t47.5 36t29.5 53t10 63.5z" />
    <glyph glyph-name="e" unicode="e" horiz-adv-x="565" 
d="M139 225q1 -36 13.5 -64t33.5 -47.5t48.5 -29.5t58.5 -10q48 0 82.5 21.5t55.5 56.5l100 -10q-13 -37 -37.5 -66t-56 -49t-69 -30t-77.5 -10q-58 0 -107 18.5t-83.5 52.5t-54 81.5t-19.5 105.5q0 57 19 105t53 83t81.5 54.5t104.5 19.5q60 0 107.5 -19.5t80.5 -56t50 -89
t16 -117.5h-400zM429 295q-9 56 -44 92t-98 36q-61 0 -100 -36.5t-47 -91.5h289v0z" />
    <glyph glyph-name="f" unicode="f" horiz-adv-x="319" 
d="M192 396v-396h-114v396h-58v97h58v158q0 48 13.5 83.5t37 59t55.5 34.5t68 11q14 0 32.5 -3.5t30.5 -9.5v-101q-11 5 -23.5 9t-26.5 4q-36 0 -54.5 -23.5t-18.5 -80.5v-141h123v-97h-123z" />
    <glyph glyph-name="g" unicode="g" horiz-adv-x="617" 
d="M559 34q0 -75 -20 -130t-55.5 -90.5t-84 -53t-106.5 -17.5q-50 0 -94.5 12.5t-79 38t-56.5 64t-27 89.5h115q3 -26 15.5 -46.5t32 -35t44.5 -22t53 -7.5q41 0 69.5 13.5t46.5 39.5t26 62.5t8 83.5v37h-2q-21 -39 -69 -62t-102 -23q-49 0 -93 19t-76 53.5t-51 82.5
t-19 106q0 53 18 100.5t50.5 82.5t77 55.5t97.5 20.5t97 -21t70 -60h2v67h113v-459v0zM450 250q0 32 -11 61.5t-31 51.5t-49 35t-64 13t-63.5 -13t-48.5 -35.5t-31 -52.5t-11 -63t11 -62.5t31.5 -52.5t49.5 -36.5t64 -13.5q36 0 64.5 13.5t48 37t30 54t10.5 63.5z" />
    <glyph glyph-name="h" unicode="h" horiz-adv-x="573" 
d="M396 0v284q0 28 -4.5 52t-16 41.5t-31.5 27.5t-50 10q-29 0 -50.5 -12.5t-36 -34t-21.5 -49.5t-7 -59v-260h-113v827h113v-401h2q53 81 155 81q85 0 129.5 -52.5t44.5 -143.5v-311h-114z" />
    <glyph glyph-name="i" unicode="i" horiz-adv-x="255" 
d="M193 662q0 -26 -19.5 -45t-45.5 -19q-27 0 -46.5 19t-19.5 45q0 27 19.5 46.5t46.5 19.5q26 0 45.5 -19.5t19.5 -46.5zM70 0v493h115v-493h-115z" />
    <glyph glyph-name="j" unicode="j" horiz-adv-x="255" 
d="M193 662q0 -26 -19.5 -45t-45.5 -19q-27 0 -46.5 19t-19.5 45q0 27 19.5 46.5t46.5 19.5q26 0 45.5 -19.5t19.5 -46.5zM185 -66q0 -46 -13.5 -81.5t-36.5 -60t-55 -37t-69 -12.5q-14 0 -32 3.5t-31 9.5v100q12 -5 25 -8.5t27 -3.5q37 0 53.5 23.5t16.5 80.5v545h115v-559
v0z" />
    <glyph glyph-name="k" unicode="k" horiz-adv-x="514" 
d="M377 0l-189 225l-13 -12v-213h-113v827h113v-527l190 193h138l-226 -220l239 -273h-139z" />
    <glyph glyph-name="l" unicode="l" horiz-adv-x="255" 
d="M70 0v827h115v-827h-115z" />
    <glyph glyph-name="m" unicode="m" horiz-adv-x="855" 
d="M679 0v288q0 66 -20.5 96.5t-71.5 30.5q-55 0 -78 -36.5t-23 -105.5v-273h-114v278q0 70 -19.5 104.5t-74.5 34.5q-53 0 -76 -39t-23 -117v-261h-113v493h113v-62h2q49 76 140 76q49 0 89 -22t63 -70q23 45 64 68.5t92 23.5q85 0 124.5 -51t39.5 -136v-320h-114z" />
    <glyph glyph-name="n" unicode="n" horiz-adv-x="560" 
d="M389 0v278q0 26 -3 50.5t-13.5 44t-29.5 31t-52 11.5q-30 0 -51.5 -12t-36 -33t-21.5 -49t-7 -60v-261h-115v493h115v-67h2q24 39 64 60t94 21q81 0 124.5 -50.5t43.5 -143.5v-313h-114z" />
    <glyph glyph-name="o" unicode="o" horiz-adv-x="590" 
d="M562 246q0 -55 -19.5 -102t-54.5 -82t-85 -55t-110 -20q-61 0 -110 20t-83.5 55t-53.5 82t-19 102q0 57 19.5 104.5t54.5 82.5t85 54.5t110 19.5q62 0 111 -20t83.5 -55.5t53 -83t18.5 -102.5zM455 246q0 33 -11 63t-31.5 52.5t-50 36t-66.5 13.5t-67 -13.5t-51 -36
t-32.5 -52.5t-11.5 -63t11 -62.5t31 -52t50 -36t67 -13.5q38 0 68 13t51 35.5t32 52t11 63.5z" />
    <glyph glyph-name="p" unicode="p" horiz-adv-x="617" 
d="M587 253q0 -58 -18.5 -107t-51 -84t-76.5 -55t-94 -20q-54 0 -100 21.5t-70 59.5h-2v-334h-115v759h115v-64h2q28 37 73.5 57.5t98.5 20.5t96.5 -19.5t75 -54t49 -81t17.5 -99.5zM479 247q0 33 -11 62.5t-31.5 52t-48.5 35.5t-63 13t-63.5 -13t-49 -35t-31.5 -51t-11 -61
q0 -33 10 -63.5t29.5 -54t48 -37t65.5 -13.5q35 0 64 13.5t49.5 36.5t31.5 52.5t11 62.5z" />
    <glyph glyph-name="q" unicode="q" horiz-adv-x="623" 
d="M447 -266v344h-2q-12 -22 -30.5 -39t-41 -28.5t-47.5 -17.5t-51 -6q-52 0 -96.5 19t-77.5 53t-51.5 81.5t-18.5 103.5q0 53 17.5 101t49.5 84t77 57t100 21q50 0 96 -21.5t74 -61.5h2v69h114v-759h-114zM450 250q0 31 -11 59.5t-31.5 50.5t-48.5 35t-62 13t-62 -13
t-47.5 -34.5t-30 -51t-10.5 -62.5t10 -63t29.5 -52t47.5 -35t64 -13q37 0 65 13.5t47.5 36t29.5 53t10 63.5z" />
    <glyph glyph-name="r" unicode="r" horiz-adv-x="368" 
d="M343 385q-14 7 -30.5 11t-33.5 4q-55 0 -79.5 -43t-24.5 -128v-229h-115v493h115v-73h2q40 83 134 83q11 0 21 -2t21 -5l-10 -111v0z" />
    <glyph glyph-name="s" unicode="s" horiz-adv-x="427" 
d="M397 152q0 -37 -14.5 -67.5t-40 -52.5t-59.5 -33.5t-73 -11.5q-60 0 -110.5 24t-83.5 67l56 68q23 -30 59.5 -51t76.5 -21q38 0 59 20t21 48q0 24 -17.5 38t-43.5 25.5t-56 22.5t-56 27t-43.5 41t-17.5 64q0 33 13 60t36.5 46.5t55 30t68.5 10.5q51 0 86 -15t64 -41
l-48 -73q-20 18 -44 30.5t-50 12.5q-33 0 -52.5 -17t-19.5 -42q0 -19 17.5 -31.5t43.5 -22.5t56 -21t56 -27.5t43.5 -42t17.5 -65.5z" />
    <glyph glyph-name="t" unicode="t" horiz-adv-x="307" 
d="M202 396v-396h-115v396h-55v97h55v161h115v-161h93v-97h-93z" />
    <glyph glyph-name="u" unicode="u" horiz-adv-x="559" 
d="M501 207q0 -111 -59 -165.5t-163 -54.5q-106 0 -163.5 57t-57.5 163v286h114v-270q0 -31 4.5 -57.5t16.5 -45.5t33.5 -29.5t54.5 -10.5t54 10.5t32.5 29.5t15.5 45.5t4 57.5v270h114v-286v0z" />
    <glyph glyph-name="v" unicode="v" horiz-adv-x="513" 
d="M286 -12h-59l-233 505h125l140 -336h2l139 336h119z" />
    <glyph glyph-name="w" unicode="w" horiz-adv-x="806" 
d="M607 -12h-71l-133 339l-132 -339h-74l-203 505h120l125 -335h2l132 342h61l132 -342h2l125 335h120z" />
    <glyph glyph-name="x" unicode="x" horiz-adv-x="507" 
d="M374 0l-123 174h-2l-122 -174h-127l189 251l-182 242h133l115 -165h2l115 165h128l-183 -241l190 -252h-133z" />
    <glyph glyph-name="y" unicode="y" horiz-adv-x="550" 
d="M202 -266h-118l137 295l-233 464h129l164 -348h2l152 348h122z" />
    <glyph glyph-name="z" unicode="z" horiz-adv-x="504" 
d="M200 96h281v-96h-475l294 396h-257v97h450z" />
    <glyph glyph-name="braceleft" unicode="{" 
d="M286 -215q-91 0 -137 42t-46 130v183q0 40 -19.5 64t-51.5 24v102q32 0 51.5 24.5t19.5 64.5v183q0 88 46 129.5t137 41.5v-96q-43 0 -59.5 -21.5t-16.5 -80.5v-173q0 -54 -19.5 -82.5t-61.5 -39.5v-2q42 -11 61.5 -39t19.5 -82v-172q0 -59 16.5 -81.5t59.5 -22.5v-96v0z
" />
    <glyph glyph-name="bar" unicode="|" horiz-adv-x="319" 
d="M110 -223v1012h99v-1012h-99z" />
    <glyph glyph-name="braceright" unicode="}" 
d="M291 228q-32 0 -51 -24t-19 -64v-183q0 -172 -183 -172v96q22 0 36.5 5t23.5 17t12.5 32t3.5 50v172q0 54 19.5 82t61.5 39v2q-42 11 -61.5 39.5t-19.5 82.5v173q0 30 -3.5 49.5t-12.5 31t-23.5 16.5t-36.5 5v96q91 0 137 -41.5t46 -129.5v-183q0 -40 19 -64.5t51 -24.5
v-102v0z" />
    <glyph glyph-name="asciitilde" unicode="~" horiz-adv-x="494" 
d="M424 438q0 -66 -30.5 -93.5t-79.5 -27.5q-16 0 -34 6t-36 13.5t-35 13.5t-32 6q-38 0 -38 -40h-71q0 66 30.5 93.5t79.5 27.5q18 0 36 -6t35.5 -13.5t34 -13.5t31.5 -6q38 0 38 40h71v0z" />
    <glyph glyph-name="exclamdown" unicode="&#xa1;" horiz-adv-x="349" 
d="M246 429q0 -29 -22 -50.5t-51 -21.5t-50.5 21.5t-21.5 50.5t21.5 50.5t50.5 21.5t51 -21.5t22 -50.5zM120 -267v531h110v-531h-110z" />
    <glyph glyph-name="cent" unicode="&#xa2;" horiz-adv-x="532" 
d="M472 164q-56 -39 -128 -43v-109h-78v113q-45 9 -83 31.5t-66.5 56t-44.5 76.5t-16 92t15.5 91.5t44 75.5t67.5 55.5t85 31.5v108h78v-104q71 -3 123 -41v-110q-24 23 -61 38.5t-79 15.5q-35 0 -65 -11.5t-51.5 -32t-34 -50t-12.5 -65.5q0 -35 12.5 -64.5t35 -51.5
t52.5 -34t66 -12q45 0 80 15t60 40v-112v0z" />
    <glyph glyph-name="sterling" unicode="&#xa3;" horiz-adv-x="598" 
d="M589 65q-32 -41 -75 -60.5t-92 -19.5q-38 0 -63.5 5.5t-49 12t-50.5 12t-67 5.5q-21 0 -49.5 -6t-63.5 -21l-39 98q78 38 118 81.5t40 97.5h-133v69h116q-9 25 -26.5 49t-34.5 51t-27 56t-10 68q0 40 18 77.5t49 66t73 45.5t90 17q53 0 94 -16t70.5 -44t45.5 -67t17 -84
v-9h-111v9q0 48 -31.5 79t-85.5 31q-25 0 -46.5 -9t-37.5 -24.5t-25 -35.5t-9 -43q0 -32 10.5 -57.5t29.5 -55.5q20 -29 38 -54.5t25 -49.5h143v-69h-129q2 -47 -22.5 -84t-72.5 -69q41 0 66 -4.5t44 -10.5t37.5 -10.5t45.5 -4.5q38 0 72.5 17t59.5 46l48 -85v0z" />
    <glyph glyph-name="currency" unicode="&#xa4;" horiz-adv-x="550" 
d="M201 587q0 -34 -23.5 -56t-63.5 -22q-48 0 -82 35l24 40q29 -29 57 -29q17 0 26 8.5t9 19.5q0 19 -32 32l-16 6q-30 12 -41.5 27.5t-11.5 35.5q0 30 21.5 51.5t54.5 21.5q23 0 41 -7t31 -18l-21 -40q-14 11 -25 15t-22 4q-12 0 -20.5 -6.5t-8.5 -15.5q0 -10 8 -16t26 -14
l18 -8q51 -19 51 -64zM463 513l-23 140h-3l-53 -143h-31l-50 143h-3l-24 -140h-52l46 241h43l56 -147l59 147h44l44 -241h-53z" />
    <glyph glyph-name="yen" unicode="&#xa5;" horiz-adv-x="693" 
d="M449 375h164v-79h-203v-70h203v-79h-203v-147h-122v147h-202v79h202v70h-202v79h163l-225 379h142l183 -328h2l180 328h142z" />
    <glyph glyph-name="section" unicode="&#xa7;" horiz-adv-x="594" 
d="M512 294q0 -62 -31 -106.5t-88 -66.5q58 -26 81.5 -64t23.5 -92q0 -36 -15 -68t-42.5 -56t-66.5 -38.5t-88 -14.5q-61 0 -116 22t-95 62l59 82q31 -30 70 -48.5t77 -18.5q48 0 74.5 22t26.5 61q0 29 -21.5 48.5t-53.5 35t-70 31.5t-70 39t-53.5 57t-21.5 86
q0 60 31.5 104.5t90.5 65.5q-57 26 -85.5 63t-28.5 89q0 38 15 70.5t42.5 57t65.5 38.5t83 14q58 0 106 -20t80 -53l-54 -83q-26 26 -59 42t-65 16q-45 0 -72 -21.5t-27 -59.5q0 -29 22 -47.5t55 -33.5t71.5 -31t71.5 -39t55 -57.5t22 -87.5zM407 279q0 43 -29.5 74
t-76.5 31q-22 0 -40.5 -8.5t-32 -22.5t-21 -33.5t-7.5 -40.5t7.5 -40t21 -33.5t32.5 -23t43 -8.5q47 0 75 31t28 74z" />
    <glyph glyph-name="dieresis" unicode="&#xa8;" horiz-adv-x="485" 
d="M417 662q0 -26 -20 -45t-46 -19t-45.5 19t-19.5 45q0 27 19.5 46.5t45.5 19.5t46 -19.5t20 -46.5zM198 662q0 -26 -19.5 -45t-45.5 -19q-27 0 -46.5 19t-19.5 45q0 27 19.5 46.5t46.5 19.5q26 0 45.5 -19.5t19.5 -46.5z" />
    <glyph glyph-name="copyright" unicode="&#xa9;" horiz-adv-x="833" 
d="M816 377q0 -81 -30 -152.5t-83 -125t-125.5 -84t-158.5 -30.5q-87 0 -160 31t-126 84t-83 125t-30 153t30 152t83 124.5t125.5 84t158.5 30.5t159 -30.5t126.5 -84t83.5 -125t30 -152.5zM770 377q0 72 -27 135t-74 110t-111.5 74.5t-139.5 27.5q-76 0 -140.5 -27
t-111.5 -74t-73.5 -110.5t-26.5 -135.5t27 -135.5t74 -110.5t111.5 -74.5t139.5 -27.5q76 0 140.5 27t111.5 73.5t73.5 110.5t26.5 137zM560 192q-29 -17 -59 -27.5t-63 -10.5q-52 0 -94.5 18t-72.5 48.5t-46 72t-16 87.5q0 47 16.5 87.5t46.5 71.5t72 48.5t93 17.5
q35 0 66 -10.5t57 -28.5v-82l-1 -1q-20 24 -53 39t-68 15q-34 0 -63 -11.5t-49 -32.5t-31.5 -50t-11.5 -64q0 -33 11.5 -62t32.5 -50.5t49.5 -33.5t62.5 -12q32 0 66 15t54 37h1v-81v0z" />
    <glyph glyph-name="ordfeminine" unicode="&#xaa;" horiz-adv-x="461" 
d="M315 411v46h-1q-14 -26 -44.5 -41t-68.5 -15q-34 0 -65 13.5t-54 38t-37 59t-14 75.5q0 38 13 71t36.5 58.5t55 40t68.5 14.5q74 0 110 -52h1v42h93v-350h-93zM317 587q0 20 -7 38.5t-20 32.5t-31 22.5t-40 8.5t-40 -8.5t-30.5 -22.5t-19.5 -33t-7 -40q0 -20 7 -38
t20 -32t31.5 -22.5t40.5 -8.5q23 0 40.5 8.5t30 22.5t19 32.5t6.5 39.5z" />
    <glyph glyph-name="guillemotleft" unicode="&#xab;" horiz-adv-x="494" 
d="M373 43l-159 208l159 207l65 -48l-124 -159l125 -159zM189 43l-159 208l159 207l64 -48l-123 -159l125 -159z" />
    <glyph glyph-name="logicalnot" unicode="&#xac;" 
d="M291 322q-32 0 -51 -24t-19 -64v-183q0 -172 -183 -172v96q22 0 36.5 5t23.5 17t12.5 31.5t3.5 49.5v174q0 54 19.5 82t61.5 39v2q-42 12 -61.5 39.5t-19.5 81.5v173q0 30 -3.5 49.5t-12.5 31.5t-23.5 17t-36.5 5v96q183 0 183 -172v-182q0 -40 19 -64.5t51 -24.5v-103v0
z" />
    <glyph glyph-name="minus" unicode="&#xad;" horiz-adv-x="653" 
d="M70 248v97h512v-97h-512z" />
    <glyph glyph-name="registered" unicode="&#xae;" horiz-adv-x="833" 
d="M816 377q0 -81 -30 -152.5t-83 -125t-125.5 -84t-158.5 -30.5q-87 0 -160 31t-126 84t-83 125t-30 153t30 152t83 124.5t125.5 84t158.5 30.5t159 -30.5t126.5 -84t83.5 -125t30 -152.5zM770 377q0 72 -27 135t-74 110t-111.5 74.5t-139.5 27.5q-76 0 -140.5 -27
t-111.5 -74t-73.5 -110.5t-26.5 -135.5t27 -135.5t74 -110.5t111.5 -74.5t139.5 -27.5q76 0 140.5 27t111.5 73.5t73.5 110.5t26.5 137zM501 162l-129 187h-3v-187h-72v434h109q72 0 110 -33t38 -91q0 -45 -28.5 -77.5t-79.5 -39.5l138 -193h-83zM478 469q0 35 -21.5 51.5
t-70.5 16.5h-17v-135h25q84 0 84 67z" />
    <glyph glyph-name="macron" unicode="&#xaf;" horiz-adv-x="529" 
d="M75 632v80h378v-80h-378z" />
    <glyph glyph-name="degree" unicode="&#xb0;" horiz-adv-x="400" 
d="M350 618q0 -31 -12 -58t-32.5 -47t-48 -32t-58.5 -12t-58 12t-47.5 32t-32 47t-11.5 58t11.5 58.5t31.5 48t47.5 32.5t58.5 12t58.5 -12t48 -32.5t32.5 -48t12 -58.5zM282 619q0 17 -6.5 32t-17.5 26.5t-26 18t-33 6.5q-35 0 -58.5 -24.5t-23.5 -58.5q0 -35 24 -59.5
t59 -24.5t58.5 24.5t23.5 59.5z" />
    <glyph glyph-name="plusminus" unicode="&#xb1;" horiz-adv-x="500" 
d="M50 328v97h400v-97h-400z" />
    <glyph glyph-name="acute" unicode="&#xb4;" horiz-adv-x="327" 
d="M144 578h-92l102 168h129z" />
    <glyph glyph-name="mu" unicode="&#xb5;" horiz-adv-x="613" 
d="M393 635q0 48 -26.5 76t-74.5 28q-47 0 -73.5 -27t-26.5 -78v-141h201v142zM600 493v-97h-93v-396h-114v396h-201v-396h-114v396h-58v97h58v146q0 45 14.5 82t42.5 63t67.5 40.5t90.5 14.5q101 0 157.5 -55t56.5 -146v-145h93z" />
    <glyph glyph-name="paragraph" unicode="&#xb6;" horiz-adv-x="655" 
d="M470 0v679h-91v-679h-74v304q-53 3 -94.5 20t-70 46.5t-43 69.5t-14.5 88q0 50 16 91.5t47 71.5t76 46.5t103 16.5h220v-754h-75z" />
    <glyph glyph-name="periodcentered" unicode="&#xb7;" horiz-adv-x="315" 
d="M226 377q0 -28 -20.5 -48.5t-48.5 -20.5q-29 0 -49 20.5t-20 48.5t20 48t49 20q28 0 48.5 -20t20.5 -48z" />
    <glyph glyph-name="periodcentered" unicode="&#x2219;" horiz-adv-x="315" 
d="M226 377q0 -28 -20.5 -48.5t-48.5 -20.5q-29 0 -49 20.5t-20 48.5t20 48t49 20q28 0 48.5 -20t20.5 -48z" />
    <glyph glyph-name="cedilla" unicode="&#xb8;" horiz-adv-x="275" 
d="M87 -220l-59 37l110 150l77 -50z" />
    <glyph glyph-name="ordmasculine" unicode="&#xba;" horiz-adv-x="440" 
d="M411 586q0 -40 -13.5 -73.5t-39 -58.5t-60.5 -39t-79 -14q-43 0 -78.5 14t-60 39t-38 58.5t-13.5 73.5q0 41 14 75t39 58.5t60.5 38t78.5 13.5q44 0 79 -14t60 -39t38 -59t13 -73zM320 586q0 42 -26.5 72t-72.5 30t-73.5 -30t-27.5 -72q0 -43 26.5 -72.5t72.5 -29.5
q48 0 74.5 29.5t26.5 72.5z" />
    <glyph glyph-name="guillemotright" unicode="&#xbb;" horiz-adv-x="494" 
d="M305 43l-66 49l125 159l-124 159l65 48l159 -207zM121 43l-66 49l125 159l-124 159l65 48l158 -207z" />
    <glyph glyph-name="questiondown" unicode="&#xbf;" horiz-adv-x="487" 
d="M358 429q0 -29 -20.5 -51t-50.5 -22t-51 22t-21 51q0 30 21 51t51 21t50.5 -21t20.5 -51zM490 -140q-22 -69 -78 -106t-133 -37q-55 0 -101.5 17.5t-81 48.5t-54 73t-19.5 92q0 48 15.5 87t43.5 68t66.5 47t83.5 23v95h113v-175h-27q-80 0 -129.5 -37.5t-49.5 -106.5
q0 -28 10 -52t28 -41t42.5 -27t52.5 -10q43 0 73.5 20.5t48.5 52.5l96 -32v0z" />
    <glyph glyph-name="Agrave" unicode="&#xc0;" horiz-adv-x="711" 
d="M578 0l-74 189h-301l-75 -189h-128l313 766h88l309 -766h-132zM355 576h-2l-113 -289h228zM323 821l-139 168h129l102 -168h-92z" />
    <glyph glyph-name="Aacute" unicode="&#xc1;" horiz-adv-x="711" 
d="M578 0l-74 189h-301l-75 -189h-128l313 766h88l309 -766h-132zM355 576h-2l-113 -289h228zM395 821h-92l102 168h129z" />
    <glyph glyph-name="Acircumflex" unicode="&#xc2;" horiz-adv-x="711" 
d="M578 0l-74 189h-301l-75 -189h-128l313 766h88l309 -766h-132zM355 576h-2l-113 -289h228zM443 816l-88 109l-86 -109h-105l141 174h103l141 -174h-106z" />
    <glyph glyph-name="Atilde" unicode="&#xc3;" horiz-adv-x="711" 
d="M578 0l-74 189h-301l-75 -189h-128l313 766h88l309 -766h-132zM355 576h-2l-113 -289h228zM546 969q0 -70 -31 -100t-86 -30q-18 0 -36.5 6.5t-37.5 14t-36.5 14t-32.5 6.5q-40 0 -40 -41h-78q0 70 31.5 100t86.5 30q19 0 38 -6.5t37 -15t35 -15t33 -6.5q20 0 29.5 11.5
t9.5 31.5h78v0z" />
    <glyph glyph-name="Adieresis" unicode="&#xc4;" horiz-adv-x="711" 
d="M578 0l-74 189h-301l-75 -189h-128l313 766h88l309 -766h-132zM355 576h-2l-113 -289h228zM531 901q0 -26 -19.5 -45.5t-46.5 -19.5t-46 19.5t-19 45.5q0 27 19 46t46 19t46.5 -19t19.5 -46zM312 901q0 -26 -19.5 -45.5t-45.5 -19.5q-28 0 -47.5 19.5t-19.5 45.5
q0 27 19.5 46t47.5 19q26 0 45.5 -19t19.5 -46z" />
    <glyph glyph-name="Aring" unicode="&#xc5;" horiz-adv-x="711" 
d="M578 0l-74 189h-301l-75 -189h-128l309 757q-28 11 -44 35.5t-16 56.5q0 48 29.5 76.5t78.5 28.5q51 0 79.5 -29.5t28.5 -75.5q0 -32 -16 -56.5t-45 -34.5l306 -758h-132zM408 849q0 22 -14 37t-37 15t-36.5 -15t-13.5 -37q0 -23 13 -37.5t36 -14.5q24 0 38 14.5t14 37.5
zM355 576h-2l-113 -289h228z" />
    <glyph glyph-name="AE" unicode="&#xc6;" horiz-adv-x="1016" 
d="M561 0v189h-296l-147 -189h-142l574 754h406v-106h-273v-204h263v-101h-263v-237h273v-106h-395zM561 586h-1l-218 -299h219v299z" />
    <glyph glyph-name="Ccedilla" unicode="&#xc7;" horiz-adv-x="690" 
d="M644 50q-51 -31 -102 -48t-108 -17q-91 0 -165 31t-126 84t-80.5 124.5t-28.5 153.5q0 81 28.5 152.5t81 124.5t126 83.5t162.5 30.5q60 0 113 -17t99 -49v-139l-2 -2q-38 45 -94 69.5t-116 24.5t-110 -21t-86 -58t-56.5 -88t-20.5 -111q0 -59 21 -110t58.5 -89t88 -59.5
t108.5 -21.5q27 0 56 6.5t56.5 18t52 28t42.5 37.5l2 -1v-137v0zM351 -236l-59 37l109 151l78 -51z" />
    <glyph glyph-name="Egrave" unicode="&#xc8;" horiz-adv-x="527" 
d="M72 0v754h395v-106h-273v-204h263v-101h-263v-237h273v-106h-395zM260 809l-139 168h129l102 -168h-92z" />
    <glyph glyph-name="Eacute" unicode="&#xc9;" horiz-adv-x="527" 
d="M72 0v754h395v-106h-273v-204h263v-101h-263v-237h273v-106h-395zM286 809h-92l102 168h129z" />
    <glyph glyph-name="Ecircumflex" unicode="&#xca;" horiz-adv-x="527" 
d="M72 0v754h395v-106h-273v-204h263v-101h-263v-237h273v-106h-395zM354 809l-87 108l-86 -108h-105l141 173h103l141 -173h-107z" />
    <glyph glyph-name="Edieresis" unicode="&#xcb;" horiz-adv-x="527" 
d="M72 0v754h395v-106h-273v-204h263v-101h-263v-237h273v-106h-395zM441 893q0 -26 -19.5 -45.5t-45.5 -19.5q-27 0 -46 19.5t-19 45.5q0 27 19 46t46 19q26 0 45.5 -19t19.5 -46zM223 893q0 -26 -19.5 -45.5t-46.5 -19.5t-46.5 19.5t-19.5 45.5q0 27 19.5 46t46.5 19
t46.5 -19t19.5 -46z" />
    <glyph glyph-name="Igrave" unicode="&#xcc;" horiz-adv-x="264" 
d="M72 0v754h122v-754h-122zM94 809l-139 168h129l102 -168h-92z" />
    <glyph glyph-name="Iacute" unicode="&#xcd;" horiz-adv-x="264" 
d="M72 0v754h122v-754h-122zM173 809h-92l102 168h129z" />
    <glyph glyph-name="Icircumflex" unicode="&#xce;" horiz-adv-x="264" 
d="M72 0v754h122v-754h-122zM220 809l-87 108l-86 -108h-106l142 173h103l141 -173h-107z" />
    <glyph glyph-name="Idieresis" unicode="&#xcf;" horiz-adv-x="264" 
d="M72 0v754h122v-754h-122zM307 893q0 -26 -19.5 -45.5t-45.5 -19.5q-27 0 -46 19.5t-19 45.5q0 27 19 46t46 19q26 0 45.5 -19t19.5 -46zM89 893q0 -26 -19.5 -45.5t-46.5 -19.5t-46.5 19.5t-19.5 45.5q0 27 19.5 46t46.5 19t46.5 -19t19.5 -46z" />
    <glyph glyph-name="Eth" unicode="&#xd0;" horiz-adv-x="703" 
d="M671 377q0 -78 -29 -146.5t-80 -119.5t-121.5 -81t-154.5 -30h-214v328h-82v100h82v326h214q83 0 153.5 -29.5t122 -80.5t80.5 -120t29 -147zM545 377q0 57 -17.5 106t-52.5 86t-87 58t-120 21h-74v-220h142v-100h-142v-222h74q68 0 119.5 21t86.5 57.5t53 86t18 106.5z
" />
    <glyph glyph-name="Ntilde" unicode="&#xd1;" horiz-adv-x="834" 
d="M670 -12l-475 558h-2v-546h-121v759h93l475 -555h1v550h120v-766h-91zM601 962q0 -71 -31 -101t-86 -30q-17 0 -36 6.5t-37.5 14.5t-36.5 14.5t-33 6.5q-20 0 -29.5 -11t-9.5 -31h-78q0 70 31 100t87 30q19 0 37.5 -6.5t36.5 -14.5t35.5 -14.5t33.5 -6.5q39 0 39 43h77v0
z" />
    <glyph glyph-name="Ograve" unicode="&#xd2;" horiz-adv-x="861" 
d="M829 377q0 -81 -30 -152.5t-83 -125t-125.5 -84t-158.5 -30.5q-87 0 -160.5 31t-127 84t-83 124.5t-29.5 153.5q0 81 29.5 152.5t82.5 124.5t126 83.5t159 30.5t159.5 -30.5t127 -84t83.5 -125t30 -152.5zM704 377q0 59 -21 110.5t-58 90t-87.5 61t-108.5 22.5
q-60 0 -110 -21.5t-86 -59.5t-56 -90t-20 -112q0 -59 21 -111t58 -90.5t87.5 -61t108.5 -22.5q59 0 109 21.5t86 59.5t56.5 90t20.5 113zM378 821l-139 168h129l102 -168h-92z" />
    <glyph glyph-name="Oacute" unicode="&#xd3;" horiz-adv-x="861" 
d="M829 377q0 -81 -30 -152.5t-83 -125t-125.5 -84t-158.5 -30.5q-87 0 -160.5 31t-127 84t-83 124.5t-29.5 153.5q0 81 29.5 152.5t82.5 124.5t126 83.5t159 30.5t159.5 -30.5t127 -84t83.5 -125t30 -152.5zM704 377q0 59 -21 110.5t-58 90t-87.5 61t-108.5 22.5
q-60 0 -110 -21.5t-86 -59.5t-56 -90t-20 -112q0 -59 21 -111t58 -90.5t87.5 -61t108.5 -22.5q59 0 109 21.5t86 59.5t56.5 90t20.5 113zM467 821h-93l102 168h129z" />
    <glyph glyph-name="Ocircumflex" unicode="&#xd4;" horiz-adv-x="861" 
d="M515 816l-87 109l-86 -109h-106l142 174h103l141 -174h-107zM830 377q0 -81 -30 -152.5t-83 -125t-125.5 -84t-158.5 -30.5q-87 0 -160.5 31t-126.5 84t-83 124.5t-30 153.5q0 81 30 152.5t83 124.5t125.5 83.5t158.5 30.5t159.5 -30.5t127 -84t83.5 -125t30 -152.5z
M706 377q0 59 -21 110.5t-58.5 90t-87.5 61t-109 22.5t-109 -21.5t-86 -59.5t-56.5 -90t-20.5 -112q0 -59 21 -111t58 -90.5t87.5 -61t108.5 -22.5q59 0 109 21.5t86.5 59.5t57 90t20.5 113z" />
    <glyph glyph-name="Otilde" unicode="&#xd5;" horiz-adv-x="861" 
d="M829 377q0 -81 -30 -152.5t-83 -125t-125.5 -84t-158.5 -30.5q-87 0 -160.5 31t-127 84t-83 124.5t-29.5 153.5q0 81 29.5 152.5t82.5 124.5t126 83.5t159 30.5t159.5 -30.5t127 -84t83.5 -125t30 -152.5zM704 377q0 59 -21 110.5t-58 90t-87.5 61t-108.5 22.5
q-60 0 -110 -21.5t-86 -59.5t-56 -90t-20 -112q0 -59 21 -111t58 -90.5t87.5 -61t108.5 -22.5q59 0 109 21.5t86 59.5t56.5 90t20.5 113zM612 969q0 -70 -31 -100t-86 -30q-18 0 -36.5 6.5t-37.5 14t-36.5 14t-32.5 6.5q-40 0 -40 -41h-77q0 70 31 100t86 30q19 0 38 -6.5
t37 -15t35 -15t33 -6.5q21 0 30.5 11.5t9.5 31.5h77v0z" />
    <glyph glyph-name="Odieresis" unicode="&#xd6;" horiz-adv-x="861" 
d="M829 377q0 -81 -30 -152.5t-83 -125t-125.5 -84t-158.5 -30.5q-87 0 -160.5 31t-127 84t-83 124.5t-29.5 153.5q0 81 29.5 152.5t82.5 124.5t126 83.5t159 30.5t159.5 -30.5t127 -84t83.5 -125t30 -152.5zM704 377q0 59 -21 110.5t-58 90t-87.5 61t-108.5 22.5
q-60 0 -110 -21.5t-86 -59.5t-56 -90t-20 -112q0 -59 21 -111t58 -90.5t87.5 -61t108.5 -22.5q59 0 109 21.5t86 59.5t56.5 90t20.5 113zM603 901q0 -26 -19.5 -45.5t-46.5 -19.5q-26 0 -45.5 19.5t-19.5 45.5q0 27 19.5 46t45.5 19q27 0 46.5 -19t19.5 -46zM384 901
q0 -26 -19.5 -45.5t-45.5 -19.5q-28 0 -47 19.5t-19 45.5q0 27 19 46t47 19q26 0 45.5 -19t19.5 -46z" />
    <glyph glyph-name="multiply" unicode="&#xd7;" horiz-adv-x="645" 
d="M387 380l142 -142l-69 -69l-143 141l-140 -140l-69 69l140 141l-140 140l69 70l141 -141l141 141l69 -69z" />
    <glyph glyph-name="Oslash" unicode="&#xd8;" horiz-adv-x="861" 
d="M829 377q0 -81 -30 -152.5t-83 -125t-125.5 -84t-158.5 -30.5q-72 0 -133 21t-111 58q-16 -17 -32 -33.5t-29 -30.5q-15 -16 -29 -31l-56 52l88 93q-47 53 -72.5 120t-25.5 144q0 81 29.5 152.5t82.5 124.5t126 83.5t159 30.5q70 0 131 -20.5t111 -57.5l88 94l58 -53
l-87 -93q47 -52 73 -119t26 -143zM594 605q-35 26 -76.5 41t-88.5 15q-60 0 -110 -21.5t-86 -59.5t-56 -90t-20 -112q0 -49 14.5 -93t41.5 -79l381 399v0zM704 377q0 48 -15.5 92t-42.5 79q-106 -112 -190 -199q-36 -37 -70 -72.5t-60.5 -63.5t-43 -45.5l-16.5 -17.5
q34 -27 76 -42t90 -15q59 0 109 21.5t86 59.5t56.5 90t20.5 113z" />
    <glyph glyph-name="Ugrave" unicode="&#xd9;" horiz-adv-x="717" 
d="M652 282q0 -70 -18.5 -125.5t-55 -94.5t-91 -59.5t-127.5 -20.5t-127.5 21t-91.5 60t-55.5 94.5t-18.5 124.5v472h122v-448q0 -116 42.5 -166t133.5 -50q44 0 75.5 12t51.5 38t29 67t9 99v448h122v-472v0zM341 809l-139 168h129l102 -168h-92z" />
    <glyph glyph-name="Uacute" unicode="&#xda;" horiz-adv-x="717" 
d="M652 282q0 -70 -18.5 -125.5t-55 -94.5t-91 -59.5t-127.5 -20.5t-127.5 21t-91.5 60t-55.5 94.5t-18.5 124.5v472h122v-448q0 -116 42.5 -166t133.5 -50q44 0 75.5 12t51.5 38t29 67t9 99v448h122v-472v0zM374 809h-92l102 168h129z" />
    <glyph glyph-name="Ucircumflex" unicode="&#xdb;" horiz-adv-x="717" 
d="M652 282q0 -70 -18.5 -125.5t-55 -94.5t-91 -59.5t-127.5 -20.5t-127.5 21t-91.5 60t-55.5 94.5t-18.5 124.5v472h122v-448q0 -116 42.5 -166t133.5 -50q44 0 75.5 12t51.5 38t29 67t9 99v448h122v-472v0zM444 809l-87 108l-87 -108h-105l141 173h103l141 -173h-106z" />
    <glyph glyph-name="Udieresis" unicode="&#xdc;" horiz-adv-x="717" 
d="M652 282q0 -70 -18.5 -125.5t-55 -94.5t-91 -59.5t-127.5 -20.5t-127.5 21t-91.5 60t-55.5 94.5t-18.5 124.5v472h122v-448q0 -116 42.5 -166t133.5 -50q44 0 75.5 12t51.5 38t29 67t9 99v448h122v-472v0zM536 893q0 -26 -19.5 -45.5t-46.5 -19.5q-26 0 -45 19.5
t-19 45.5q0 27 19 46t45 19q27 0 46.5 -19t19.5 -46zM317 893q0 -26 -19 -45.5t-46 -19.5t-46.5 19.5t-19.5 45.5q0 27 19.5 46t46.5 19t46 -19t19 -46z" />
    <glyph glyph-name="Yacute" unicode="&#xdd;" horiz-adv-x="638" 
d="M380 310v-310h-122v310l-265 444h143l183 -327h2l181 327h141zM347 809h-92l102 168h129z" />
    <glyph glyph-name="Thorn" unicode="&#xde;" horiz-adv-x="567" 
d="M535 377q0 -51 -16 -92.5t-47 -71t-76 -45.5t-103 -16h-99v-152h-122v754h122v-152h98q58 0 103.5 -16t76.5 -45.5t47 -71t16 -92.5zM414 377q0 58 -35.5 91t-116.5 32h-68v-247h68q81 0 116.5 33t35.5 91z" />
    <glyph glyph-name="germandbls" unicode="&#xdf;" horiz-adv-x="567" 
d="M542 152q0 -37 -13.5 -67t-38.5 -52t-59.5 -34t-75.5 -12q-30 0 -58.5 6t-52.5 18l29 85q39 -22 80 -22q39 0 59 19.5t20 48.5q0 24 -14 40t-35.5 30t-46.5 28t-46.5 32t-35.5 43.5t-14 62.5q0 32 12 57.5t44 56.5q28 26 45 45.5t26 36t11.5 31.5t2.5 33q0 47 -27.5 74
t-72.5 27q-55 0 -79 -37.5t-24 -102.5v-599h-114v620q0 105 56.5 162t162.5 57q47 0 85 -14.5t65.5 -40.5t42.5 -62t15 -80q0 -25 -4 -47t-14.5 -42.5t-28 -42t-45.5 -46.5q-16 -14 -26 -25t-15.5 -20.5t-7.5 -18t-2 -18.5q0 -19 14.5 -32.5t36 -26t46.5 -26.5t46.5 -33.5
t36 -46t14.5 -65.5z" />
    <glyph glyph-name="agrave" unicode="&#xe0;" horiz-adv-x="618" 
d="M446 0v72h-2q-22 -39 -68.5 -62.5t-101.5 -23.5q-49 0 -93 19t-76.5 54t-51.5 83.5t-19 106.5q0 53 18 100t50.5 82t77 55.5t97.5 20.5t97 -20.5t70 -59.5h2v67h114v-494h-114zM450 251q0 32 -11 61.5t-31 51.5t-48.5 35t-63.5 13q-36 0 -64.5 -13t-49 -35.5t-31 -52.5
t-10.5 -64q0 -33 11 -62.5t31.5 -52.5t49.5 -36.5t65 -13.5t64.5 14t48 37t29.5 53.5t10 64.5zM277 579l-139 168h129l102 -168h-92z" />
    <glyph glyph-name="aacute" unicode="&#xe1;" horiz-adv-x="618" 
d="M446 0v72h-2q-22 -39 -68.5 -62.5t-101.5 -23.5q-49 0 -93 19t-76.5 54t-51.5 83.5t-19 106.5q0 53 18 100t50.5 82t77 55.5t97.5 20.5t97 -20.5t70 -59.5h2v67h114v-494h-114zM450 251q0 32 -11 61.5t-31 51.5t-48.5 35t-63.5 13q-36 0 -64.5 -13t-49 -35.5t-31 -52.5
t-10.5 -64q0 -33 11 -62.5t31.5 -52.5t49.5 -36.5t65 -13.5t64.5 14t48 37t29.5 53.5t10 64.5zM326 579h-92l102 168h129z" />
    <glyph glyph-name="acircumflex" unicode="&#xe2;" horiz-adv-x="618" 
d="M446 0v72h-2q-22 -39 -68.5 -62.5t-101.5 -23.5q-49 0 -93 19t-76.5 54t-51.5 83.5t-19 106.5q0 53 18 100t50.5 82t77 55.5t97.5 20.5t97 -20.5t70 -59.5h2v67h114v-494h-114zM450 251q0 32 -11 61.5t-31 51.5t-48.5 35t-63.5 13q-36 0 -64.5 -13t-49 -35.5t-31 -52.5
t-10.5 -64q0 -33 11 -62.5t31.5 -52.5t49.5 -36.5t65 -13.5t64.5 14t48 37t29.5 53.5t10 64.5zM399 579l-87 108l-86 -108h-106l142 173h103l141 -173h-107z" />
    <glyph glyph-name="atilde" unicode="&#xe3;" horiz-adv-x="618" 
d="M446 0v72h-2q-22 -39 -68.5 -62.5t-101.5 -23.5q-49 0 -93 19t-76.5 54t-51.5 83.5t-19 106.5q0 53 18 100t50.5 82t77 55.5t97.5 20.5t97 -20.5t70 -59.5h2v67h114v-494h-114zM450 251q0 32 -11 61.5t-31 51.5t-48.5 35t-63.5 13q-36 0 -64.5 -13t-49 -35.5t-31 -52.5
t-10.5 -64q0 -33 11 -62.5t31.5 -52.5t49.5 -36.5t65 -13.5t64.5 14t48 37t29.5 53.5t10 64.5zM498 732q0 -71 -31 -101t-86 -30q-17 0 -36 6.5t-37.5 14.5t-36.5 14.5t-33 6.5q-20 0 -29.5 -11t-9.5 -31h-78q0 70 31 100t87 30q19 0 37.5 -6.5t36.5 -14.5t35 -14.5t33 -6.5
q40 0 40 43h77v0z" />
    <glyph glyph-name="adieresis" unicode="&#xe4;" horiz-adv-x="618" 
d="M446 0v72h-2q-22 -39 -68.5 -62.5t-101.5 -23.5q-49 0 -93 19t-76.5 54t-51.5 83.5t-19 106.5q0 53 18 100t50.5 82t77 55.5t97.5 20.5t97 -20.5t70 -59.5h2v67h114v-494h-114zM450 251q0 32 -11 61.5t-31 51.5t-48.5 35t-63.5 13q-36 0 -64.5 -13t-49 -35.5t-31 -52.5
t-10.5 -64q0 -33 11 -62.5t31.5 -52.5t49.5 -36.5t65 -13.5t64.5 14t48 37t29.5 53.5t10 64.5zM488 662q0 -26 -19.5 -45.5t-45.5 -19.5q-27 0 -46 19.5t-19 45.5q0 27 19 46t46 19q26 0 45.5 -19t19.5 -46zM270 662q0 -26 -19.5 -45.5t-46.5 -19.5t-46.5 19.5t-19.5 45.5
q0 27 19.5 46t46.5 19t46.5 -19t19.5 -46z" />
    <glyph glyph-name="aring" unicode="&#xe5;" horiz-adv-x="618" 
d="M446 0v72h-2q-22 -39 -68.5 -62.5t-101.5 -23.5q-49 0 -93 19t-76.5 54t-51.5 83.5t-19 106.5q0 53 18 100t50.5 82t77 55.5t97.5 20.5t97 -20.5t70 -59.5h2v67h114v-494h-114zM450 251q0 32 -11 61.5t-31 51.5t-48.5 35t-63.5 13q-36 0 -64.5 -13t-49 -35.5t-31 -52.5
t-10.5 -64q0 -33 11 -62.5t31.5 -52.5t49.5 -36.5t65 -13.5t64.5 14t48 37t29.5 53.5t10 64.5zM418 663q0 -45 -29.5 -75t-79.5 -30t-79 30t-29 75q0 47 29.5 76t79.5 29q51 0 79.5 -30t28.5 -75zM360 663q0 22 -13.5 37t-36.5 15t-37 -15t-14 -37t13.5 -36.5t36.5 -14.5
q24 0 37.5 14.5t13.5 36.5z" />
    <glyph glyph-name="ae" unicode="&#xe6;" horiz-adv-x="924" 
d="M497 226q1 -36 14 -64.5t34 -48t48.5 -29.5t58.5 -10q48 0 82.5 22t55.5 57l99 -10q-13 -38 -37 -67t-55.5 -49t-69 -30.5t-77.5 -10.5q-73 0 -127.5 28.5t-86.5 79.5h-3q-29 -54 -83.5 -81t-118.5 -27q-36 0 -72 10t-65 30t-47 50t-18 70q0 42 16.5 73t45 51.5t65.5 31
t77 10.5q82 0 141 -42l1 4q0 5 -0.5 14t-2 18.5t-4 17.5t-5.5 11q-6 43 -37.5 63t-83.5 20q-44 0 -82.5 -9.5t-76.5 -26.5v94q38 15 78 23t92 8q65 0 113.5 -24t73.5 -73h2q32 45 83.5 71t117.5 26q61 0 108.5 -19.5t80.5 -56t50 -88.5t16 -117h-401zM787 295
q-9 57 -44 92.5t-98 35.5q-61 0 -99.5 -36t-46.5 -92h288v0zM365 155q0 41 -32 63t-80 22q-23 0 -44 -5.5t-37 -16t-25.5 -27t-9.5 -37.5q0 -22 10 -37.5t26 -26t37.5 -15.5t43.5 -5q20 0 40 6t36 17t25.5 27t9.5 35z" />
    <glyph glyph-name="ccedilla" unicode="&#xe7;" horiz-adv-x="480" 
d="M443 31q-64 -45 -149 -45q-55 0 -104 19t-85 53t-57 82.5t-21 106.5q0 57 20 105t56 82.5t85.5 53.5t107.5 19q42 0 78 -10t66 -33v-109q-23 23 -60 40t-79 17q-36 0 -66 -12t-52.5 -33t-35 -51t-12.5 -66t13 -66.5t35.5 -52.5t53.5 -34.5t67 -12.5q44 0 79 15.5t60 40.5
v-109v0zM229 -228l-60 36l110 151l78 -50z" />
    <glyph glyph-name="egrave" unicode="&#xe8;" horiz-adv-x="566" 
d="M139 226q2 -36 14.5 -64.5t33.5 -48t48.5 -29.5t58.5 -10q48 0 82 22t56 57l100 -10q-14 -38 -38.5 -67t-56 -49t-68.5 -30.5t-77 -10.5q-59 0 -107.5 18.5t-83.5 53t-54.5 82.5t-19.5 106q0 57 19 105t53 82.5t81.5 54t104.5 19.5q61 0 108.5 -19.5t80.5 -56t50 -88.5
t16 -117h-401zM429 295q-9 57 -44 92.5t-98 35.5q-61 0 -99.5 -36t-47.5 -92h289v0zM245 579l-139 168h129l102 -168h-92z" />
    <glyph glyph-name="eacute" unicode="&#xe9;" horiz-adv-x="566" 
d="M139 226q2 -36 14.5 -64.5t33.5 -48t48.5 -29.5t58.5 -10q48 0 82 22t56 57l100 -10q-14 -38 -38.5 -67t-56 -49t-68.5 -30.5t-77 -10.5q-59 0 -107.5 18.5t-83.5 53t-54.5 82.5t-19.5 106q0 57 19 105t53 82.5t81.5 54t104.5 19.5q61 0 108.5 -19.5t80.5 -56t50 -88.5
t16 -117h-401zM429 295q-9 57 -44 92.5t-98 35.5q-61 0 -99.5 -36t-47.5 -92h289v0zM314 579h-92l102 168h129z" />
    <glyph glyph-name="ecircumflex" unicode="&#xea;" horiz-adv-x="566" 
d="M139 226q2 -36 14.5 -64.5t33.5 -48t48.5 -29.5t58.5 -10q48 0 82 22t56 57l100 -10q-14 -38 -38.5 -67t-56 -49t-68.5 -30.5t-77 -10.5q-59 0 -107.5 18.5t-83.5 53t-54.5 82.5t-19.5 106q0 57 19 105t53 82.5t81.5 54t104.5 19.5q61 0 108.5 -19.5t80.5 -56t50 -88.5
t16 -117h-401zM429 295q-9 57 -44 92.5t-98 35.5q-61 0 -99.5 -36t-47.5 -92h289v0zM376 579l-87 108l-86 -108h-106l141 173h103l141 -173h-106z" />
    <glyph glyph-name="edieresis" unicode="&#xeb;" horiz-adv-x="566" 
d="M139 226q2 -36 14.5 -64.5t33.5 -48t48.5 -29.5t58.5 -10q48 0 82 22t56 57l100 -10q-14 -38 -38.5 -67t-56 -49t-68.5 -30.5t-77 -10.5q-59 0 -107.5 18.5t-83.5 53t-54.5 82.5t-19.5 106q0 57 19 105t53 82.5t81.5 54t104.5 19.5q61 0 108.5 -19.5t80.5 -56t50 -88.5
t16 -117h-401zM429 295q-9 57 -44 92.5t-98 35.5q-61 0 -99.5 -36t-47.5 -92h289v0zM466 661q0 -26 -19.5 -45.5t-46.5 -19.5q-26 0 -45.5 19.5t-19.5 45.5q0 27 19.5 46.5t45.5 19.5q27 0 46.5 -19.5t19.5 -46.5zM247 661q0 -26 -19.5 -45.5t-45.5 -19.5q-28 0 -47.5 19.5
t-19.5 45.5q0 27 19.5 46.5t47.5 19.5q26 0 45.5 -19.5t19.5 -46.5z" />
    <glyph glyph-name="igrave" unicode="&#xec;" horiz-adv-x="256" 
d="M71 0v494h114v-494h-114zM89 579l-139 168h129l102 -168h-92z" />
    <glyph glyph-name="iacute" unicode="&#xed;" horiz-adv-x="256" 
d="M71 0v494h114v-494h-114zM162 579h-92l102 168h129z" />
    <glyph glyph-name="icircumflex" unicode="&#xee;" horiz-adv-x="256" 
d="M71 0v494h114v-494h-114zM214 579l-87 108l-86 -108h-106l142 173h103l141 -173h-107z" />
    <glyph glyph-name="idieresis" unicode="&#xef;" horiz-adv-x="256" 
d="M71 0v494h114v-494h-114zM305 663q0 -26 -19.5 -45.5t-45.5 -19.5q-27 0 -46 19.5t-19 45.5q0 27 19 46t46 19q26 0 45.5 -19t19.5 -46zM87 663q0 -26 -19.5 -45.5t-46.5 -19.5t-46.5 19.5t-19.5 45.5q0 27 19.5 46t46.5 19t46.5 -19t19.5 -46z" />
    <glyph glyph-name="ntilde" unicode="&#xf1;" horiz-adv-x="561" 
d="M390 0v278q0 26 -3 50.5t-13.5 44t-30 31t-52.5 11.5q-30 0 -51.5 -12t-36 -32.5t-21.5 -48.5t-7 -60v-262h-114v494h114v-68h2q50 81 159 81q82 0 124.5 -50t42.5 -143v-314h-113zM472 732q0 -71 -31 -101t-86 -30q-18 0 -36.5 6.5t-37.5 14.5t-36.5 14.5t-32.5 6.5
q-20 0 -29.5 -11t-9.5 -31h-78q0 70 31 100t87 30q19 0 37.5 -6.5t36.5 -14.5t35 -14.5t33 -6.5q40 0 40 43h77v0z" />
    <glyph glyph-name="ograve" unicode="&#xf2;" horiz-adv-x="590" 
d="M563 247q0 -55 -19 -102.5t-54.5 -83t-85 -55.5t-110.5 -20t-110.5 20t-84 55.5t-53.5 83t-19 102.5q0 57 19.5 104.5t55 82t85 54t110.5 19.5q62 0 111 -20t83.5 -55t53 -82.5t18.5 -102.5zM455 247q0 33 -11 63t-31 52.5t-49.5 36t-66.5 13.5t-67 -13.5t-51 -36
t-32.5 -52.5t-11.5 -63t10.5 -63t31 -52.5t50 -36t67.5 -13.5t68 13t50.5 35.5t31.5 52.5t11 64zM244 579l-139 168h129l102 -168h-92z" />
    <glyph glyph-name="oacute" unicode="&#xf3;" horiz-adv-x="590" 
d="M563 247q0 -55 -19 -102.5t-54.5 -83t-85 -55.5t-110.5 -20t-110.5 20t-84 55.5t-53.5 83t-19 102.5q0 57 19.5 104.5t55 82t85 54t110.5 19.5q62 0 111 -20t83.5 -55t53 -82.5t18.5 -102.5zM455 247q0 33 -11 63t-31 52.5t-49.5 36t-66.5 13.5t-67 -13.5t-51 -36
t-32.5 -52.5t-11.5 -63t10.5 -63t31 -52.5t50 -36t67.5 -13.5t68 13t50.5 35.5t31.5 52.5t11 64zM330 579h-92l102 168h129z" />
    <glyph glyph-name="ocircumflex" unicode="&#xf4;" horiz-adv-x="590" 
d="M563 247q0 -55 -19 -102.5t-54.5 -83t-85 -55.5t-110.5 -20t-110.5 20t-84 55.5t-53.5 83t-19 102.5q0 57 19.5 104.5t55 82t85 54t110.5 19.5q62 0 111 -20t83.5 -55t53 -82.5t18.5 -102.5zM455 247q0 33 -11 63t-31 52.5t-49.5 36t-66.5 13.5t-67 -13.5t-51 -36
t-32.5 -52.5t-11.5 -63t10.5 -63t31 -52.5t50 -36t67.5 -13.5t68 13t50.5 35.5t31.5 52.5t11 64zM382 579l-87 108l-86 -108h-106l141 173h103l141 -173h-106z" />
    <glyph glyph-name="otilde" unicode="&#xf5;" horiz-adv-x="590" 
d="M563 247q0 -55 -19 -102.5t-54.5 -83t-85 -55.5t-110.5 -20t-110.5 20t-84 55.5t-53.5 83t-19 102.5q0 57 19.5 104.5t55 82t85 54t110.5 19.5q62 0 111 -20t83.5 -55t53 -82.5t18.5 -102.5zM455 247q0 33 -11 63t-31 52.5t-49.5 36t-66.5 13.5t-67 -13.5t-51 -36
t-32.5 -52.5t-11.5 -63t10.5 -63t31 -52.5t50 -36t67.5 -13.5t68 13t50.5 35.5t31.5 52.5t11 64zM487 732q0 -71 -31 -101t-86 -30q-18 0 -36.5 6.5t-37.5 14.5t-37 14.5t-33 6.5q-20 0 -29.5 -11t-9.5 -31h-78q0 70 31.5 100t86.5 30q19 0 38 -6.5t37 -14.5t35 -14.5
t33 -6.5q39 0 39 43h78v0z" />
    <glyph glyph-name="odieresis" unicode="&#xf6;" horiz-adv-x="590" 
d="M563 247q0 -55 -19 -102.5t-54.5 -83t-85 -55.5t-110.5 -20t-110.5 20t-84 55.5t-53.5 83t-19 102.5q0 57 19.5 104.5t55 82t85 54t110.5 19.5q62 0 111 -20t83.5 -55t53 -82.5t18.5 -102.5zM455 247q0 33 -11 63t-31 52.5t-49.5 36t-66.5 13.5t-67 -13.5t-51 -36
t-32.5 -52.5t-11.5 -63t10.5 -63t31 -52.5t50 -36t67.5 -13.5t68 13t50.5 35.5t31.5 52.5t11 64zM472 663q0 -26 -19.5 -45.5t-45.5 -19.5q-27 0 -46 19.5t-19 45.5q0 27 19 46t46 19q26 0 45.5 -19t19.5 -46zM254 663q0 -26 -19.5 -45.5t-46.5 -19.5t-46.5 19.5t-19.5 45.5
q0 27 19.5 46t46.5 19t46.5 -19t19.5 -46z" />
    <glyph glyph-name="divide" unicode="&#xf7;" horiz-adv-x="645" 
d="M378 580q0 -25 -18 -42.5t-42 -17.5q-25 0 -42 17.5t-17 42.5q0 24 17 41.5t42 17.5q24 0 42 -17.5t18 -41.5zM70 330v98h497v-98h-497zM378 179q0 -25 -18 -42.5t-42 -17.5q-25 0 -42 17.5t-17 42.5q0 24 17 41.5t42 17.5q24 0 42 -17.5t18 -41.5z" />
    <glyph glyph-name="oslash" unicode="&#xf8;" horiz-adv-x="590" 
d="M563 247q0 -55 -19 -102.5t-54.5 -83t-85 -55.5t-110.5 -20q-48 0 -87 12.5t-71 34.5l-58 -61l-43 40l55 59q-30 35 -46.5 80t-16.5 96q0 57 19.5 104.5t55 82t85 54t110.5 19.5q92 0 157 -45l51 54l44 -40l-49 -52q30 -35 46.5 -80t16.5 -97zM384 384q-17 13 -39 20.5
t-48 7.5q-37 0 -67 -13.5t-51 -36t-32.5 -52.5t-11.5 -63q0 -55 26 -96l223 233v0zM455 247q0 54 -28 96l-222 -232q17 -14 39.5 -21.5t49.5 -7.5q38 0 68 13t50.5 35.5t31.5 52.5t11 64z" />
    <glyph glyph-name="ugrave" unicode="&#xf9;" horiz-adv-x="560" 
d="M501 208q0 -112 -58.5 -167t-162.5 -55q-107 0 -164.5 58t-57.5 164v286h115v-270q0 -31 4.5 -57.5t16.5 -46t33 -30t55 -10.5q33 0 54 10.5t32.5 30t15.5 46t4 57.5v270h113v-286v0zM255 579l-139 168h129l102 -168h-92z" />
    <glyph glyph-name="uacute" unicode="&#xfa;" horiz-adv-x="560" 
d="M501 208q0 -112 -58.5 -167t-162.5 -55q-107 0 -164.5 58t-57.5 164v286h115v-270q0 -31 4.5 -57.5t16.5 -46t33 -30t55 -10.5q33 0 54 10.5t32.5 30t15.5 46t4 57.5v270h113v-286v0zM298 579h-92l102 168h129z" />
    <glyph glyph-name="ucircumflex" unicode="&#xfb;" horiz-adv-x="560" 
d="M501 208q0 -112 -58.5 -167t-162.5 -55q-107 0 -164.5 58t-57.5 164v286h115v-270q0 -31 4.5 -57.5t16.5 -46t33 -30t55 -10.5q33 0 54 10.5t32.5 30t15.5 46t4 57.5v270h113v-286v0zM365 579l-87 108l-86 -108h-106l142 173h103l141 -173h-107z" />
    <glyph glyph-name="udieresis" unicode="&#xfc;" horiz-adv-x="560" 
d="M501 208q0 -112 -58.5 -167t-162.5 -55q-107 0 -164.5 58t-57.5 164v286h115v-270q0 -31 4.5 -57.5t16.5 -46t33 -30t55 -10.5q33 0 54 10.5t32.5 30t15.5 46t4 57.5v270h113v-286v0zM455 663q0 -26 -19.5 -45.5t-46.5 -19.5t-46 19.5t-19 45.5q0 27 19 46t46 19
t46.5 -19t19.5 -46zM236 663q0 -26 -19.5 -45.5t-45.5 -19.5q-28 0 -47.5 19.5t-19.5 45.5q0 27 19.5 46t47.5 19q26 0 45.5 -19t19.5 -46z" />
    <glyph glyph-name="yacute" unicode="&#xfd;" horiz-adv-x="550" 
d="M203 -266h-119l138 296l-234 464h130l164 -349h1l152 349h123zM296 579h-92l102 168h129z" />
    <glyph glyph-name="thorn" unicode="&#xfe;" horiz-adv-x="611" 
d="M584 247q0 -57 -18.5 -105t-50 -82.5t-74.5 -54t-93 -19.5q-56 0 -99.5 21t-69.5 59h-2v-329h-114v1090h114v-404h2q26 38 72 58t97 20q53 0 96 -20t74.5 -54.5t48.5 -80.5t17 -99zM476 241q0 32 -10.5 61t-30.5 52t-48 36.5t-63 13.5q-36 0 -64 -13.5t-47.5 -36.5
t-30 -53t-10.5 -62q0 -33 11 -61.5t31 -49.5t48 -33t63 -12q34 0 62 13t47.5 34.5t30.5 50.5t11 60z" />
    <glyph glyph-name="ydieresis" unicode="&#xff;" horiz-adv-x="550" 
d="M203 -266h-119l138 296l-234 464h130l164 -349h1l152 349h123zM453 663q0 -26 -19.5 -45.5t-46.5 -19.5t-46 19.5t-19 45.5q0 27 19 46t46 19t46.5 -19t19.5 -46zM234 663q0 -26 -19.5 -45.5t-45.5 -19.5q-28 0 -47.5 19.5t-19.5 45.5q0 27 19.5 46t47.5 19
q26 0 45.5 -19t19.5 -46z" />
    <glyph glyph-name="OE" unicode="&#x152;" horiz-adv-x="964" 
d="M417 0q-84 0 -154.5 30t-121.5 81t-80 119.5t-29 146.5t29 147t81 120t122.5 80.5t152.5 29.5h487v-106h-273v-204h263v-101h-263v-237h273v-106h-487zM508 648h-73q-68 0 -120 -21t-87 -58t-52.5 -86t-17.5 -106t18 -106.5t53 -86t87 -57.5t119 -21h73v542z" />
    <glyph glyph-name="oe" unicode="&#x153;" horiz-adv-x="990" 
d="M573 226q2 -36 14 -64t32 -47t47 -29t57 -10q46 0 79 21t54 56l99 -10q-13 -37 -37 -66.5t-55 -49.5t-67.5 -30.5t-75.5 -10.5q-69 0 -124.5 31t-88.5 85q-33 -53 -89.5 -84.5t-128.5 -31.5q-59 0 -107.5 20t-83 55.5t-53 83t-18.5 102.5q0 56 19 104t54 82.5t83.5 54
t108.5 19.5q73 0 128.5 -31.5t87.5 -83.5q32 52 86 83.5t120 31.5q59 0 106 -20t79 -56.5t49 -88.5t16 -116h-391zM853 294q-9 54 -42.5 89t-94.5 35q-59 0 -96.5 -35t-45.5 -89h279v0zM455 247q0 33 -11 63t-31 52.5t-49.5 36t-66.5 13.5t-67 -13.5t-51 -36t-32.5 -52.5
t-11.5 -63t10.5 -63t31 -52.5t50 -36t67.5 -13.5t68 13t50.5 35.5t31.5 52.5t11 64z" />
    <glyph glyph-name="Scaron" unicode="&#x160;" horiz-adv-x="561" 
d="M522 220q0 -50 -17.5 -93t-50.5 -74.5t-80.5 -49.5t-106.5 -18q-79 0 -142 32t-108 92l72 84q38 -51 79.5 -76.5t96.5 -25.5q32 0 56.5 9.5t41 25.5t25.5 38t9 46q0 40 -25.5 69t-87.5 56l-55 25q-80 32 -122 78.5t-42 118.5q0 44 16.5 82.5t46 67t70.5 45t90 16.5
q70 0 124.5 -24t89.5 -64l-62 -93q-34 33 -68 53.5t-76 20.5q-49 0 -79 -25.5t-30 -68.5q0 -20 6.5 -35.5t20.5 -29t37 -26t56 -26.5l57 -24q83 -35 120.5 -84t37.5 -122zM345 821h-107l-140 173h109l86 -110l85 110h106z" />
    <glyph glyph-name="scaron" unicode="&#x161;" horiz-adv-x="427" 
d="M397 153q0 -38 -14.5 -69t-40 -52.5t-59 -33.5t-72.5 -12q-61 0 -111 24.5t-84 67.5l57 68q23 -30 59 -51t76 -21q38 0 59 20.5t21 48.5q0 24 -17.5 38.5t-43.5 25.5t-56 21.5t-56 26.5t-43.5 41t-17.5 64q0 33 13 60t36.5 46.5t55.5 30t69 10.5q51 0 86 -15t64 -41
l-48 -73q-20 18 -44.5 31t-50.5 13q-33 0 -52.5 -17t-19.5 -43q0 -20 17.5 -32t43.5 -22t56 -20.5t56 -27.5t43.5 -42t17.5 -65zM280 579h-107l-139 173h108l86 -111l86 111h105z" />
    <glyph glyph-name="Ydieresis" unicode="&#x178;" horiz-adv-x="638" 
d="M380 310v-310h-122v310l-265 444h143l183 -327h2l181 327h141zM494 893q0 -26 -19.5 -45.5t-46.5 -19.5q-26 0 -45 19.5t-19 45.5q0 27 19 46t45 19q27 0 46.5 -19t19.5 -46zM275 893q0 -26 -19.5 -45.5t-45.5 -19.5q-27 0 -46.5 19.5t-19.5 45.5q0 27 19.5 46t46.5 19
q26 0 45.5 -19t19.5 -46z" />
    <glyph glyph-name="florin" unicode="&#x192;" horiz-adv-x="465" 
d="M427 654q-10 5 -21.5 9t-25.5 4q-36 0 -59 -23t-32 -80l-16 -104h123l-15 -97h-123l-52 -330q-7 -48 -26.5 -83.5t-46.5 -58.5t-61 -34t-70 -11q-14 0 -31.5 3t-28.5 9l15 102q11 -5 22 -9t25 -4q36 0 59 25t31 77l49 314h-60l15 97h61l19 120q8 48 27 83.5t46 59
t60.5 34.5t70.5 11q14 0 32 -3.5t29 -9.5z" />
    <glyph glyph-name="circumflex" unicode="&#x2c6;" horiz-adv-x="485" 
d="M325 578l-87 108l-86 -108h-105l141 173h103l141 -173h-107z" />
    <glyph glyph-name="tilde" unicode="&#x2dc;" horiz-adv-x="474" 
d="M425 731q0 -70 -31 -100.5t-86 -30.5q-17 0 -36 6.5t-37.5 14.5t-36.5 14.5t-33 6.5q-20 0 -30 -11t-10 -30h-77q0 69 31 99.5t86 30.5q19 0 37.5 -6.5t36.5 -15t35.5 -15t33.5 -6.5q20 0 30 11.5t10 31.5h77v0z" />
    <glyph glyph-name="endash" unicode="&#x2013;" horiz-adv-x="500" 
d="M50 271v98h400v-98h-400z" />
    <glyph glyph-name="emdash" unicode="&#x2014;" horiz-adv-x="750" 
d="M50 271v98h650v-98h-650z" />
    <glyph glyph-name="quoteleft" unicode="&#x2018;" horiz-adv-x="302" 
d="M219 514q0 -28 -19.5 -47t-48.5 -19q-35 0 -57.5 28t-22.5 71q0 30 10 61.5t27.5 61.5t41.5 56.5t52 46.5l42 -32q-37 -33 -63 -76.5t-31 -89.5q31 2 50 -16t19 -45z" />
    <glyph glyph-name="quoteright" unicode="&#x2019;" horiz-adv-x="302" 
d="M84 702q0 28 19 47t48 19q35 0 57.5 -28t22.5 -71q0 -30 -10 -61.5t-27.5 -61.5t-41.5 -57t-52 -47l-41 33q37 33 63 76t31 89q-31 -2 -50 16.5t-19 45.5z" />
    <glyph glyph-name="quotesinglbase" unicode="&#x201a;" horiz-adv-x="302" 
d="M84 71q0 28 19 47t48 19q35 0 57.5 -28t22.5 -71q0 -30 -10 -61.5t-27.5 -61.5t-41.5 -56.5t-52 -46.5l-41 33q37 33 63 75.5t31 88.5q-31 -2 -50 16.5t-19 45.5z" />
    <glyph glyph-name="quotedblleft" unicode="&#x201c;" horiz-adv-x="512" 
d="M429 514q0 -28 -19.5 -47t-48.5 -19q-35 0 -57.5 28t-22.5 71q0 30 10 61.5t27.5 61.5t41.5 56.5t52 46.5l42 -32q-37 -33 -63 -76.5t-31 -89.5q31 2 50 -16t19 -45zM219 514q0 -28 -19.5 -47t-48.5 -19q-35 0 -57.5 28t-22.5 71q0 30 10 61.5t27.5 61.5t41.5 56.5
t52 46.5l42 -32q-37 -33 -63 -76.5t-31 -89.5q31 2 50 -16t19 -45z" />
    <glyph glyph-name="quotedblright" unicode="&#x201d;" horiz-adv-x="512" 
d="M84 702q0 28 19 47t48 19q35 0 57.5 -28t22.5 -71q0 -30 -10 -61.5t-27.5 -61.5t-41.5 -57t-52 -47l-41 33q37 33 63 76t31 89q-31 -2 -50 16.5t-19 45.5zM294 702q0 28 19 47t48 19q35 0 57.5 -28t22.5 -71q0 -30 -10 -61.5t-27.5 -61.5t-41 -57t-51.5 -47l-42 33
q37 33 63 76t31 89q-31 -2 -50 16.5t-19 45.5z" />
    <glyph glyph-name="quotedblbase" unicode="&#x201e;" horiz-adv-x="512" 
d="M84 71q0 28 19 47t48 19q35 0 57.5 -28t22.5 -71q0 -30 -10 -61.5t-27.5 -61.5t-41.5 -56.5t-52 -46.5l-41 33q37 33 63 75.5t31 88.5q-31 -2 -50 16.5t-19 45.5zM294 71q0 28 19 47t48 19q35 0 57.5 -28t22.5 -71q0 -30 -10 -61.5t-27.5 -61.5t-41 -56.5t-51.5 -46.5
l-42 33q37 33 63 75.5t31 88.5q-31 -2 -50 16.5t-19 45.5z" />
    <glyph glyph-name="dagger" unicode="&#x2020;" horiz-adv-x="553" 
d="M329 443v-622h-107v622h-178v94h178v217h107v-217h179v-94h-179z" />
    <glyph glyph-name="daggerdbl" unicode="&#x2021;" horiz-adv-x="553" 
d="M329 46v-225h-107v225h-179v94h179v302h-178v95h178v217h107v-217h179v-95h-179v-302h179v-94h-179z" />
    <glyph glyph-name="bullet" unicode="&#x2022;" horiz-adv-x="343" 
d="M313 377q0 -29 -11 -55t-29.5 -45.5t-44.5 -30.5t-56 -11t-56 11t-45 30.5t-30 45.5t-11 55t11 54.5t30 44.5t45 30t56 11t56 -11t44.5 -30t29.5 -44.5t11 -54.5z" />
    <glyph glyph-name="ellipsis" unicode="&#x2026;" horiz-adv-x="844" 
d="M756 54q0 -28 -20.5 -48.5t-48.5 -20.5t-48.5 20.5t-20.5 48.5t20.5 48.5t48.5 20.5t48.5 -20.5t20.5 -48.5zM491 54q0 -28 -20.5 -48.5t-48.5 -20.5t-48.5 20.5t-20.5 48.5t20.5 48.5t48.5 20.5t48.5 -20.5t20.5 -48.5zM226 54q0 -28 -20.5 -48.5t-48.5 -20.5
q-29 0 -49 20.5t-20 48.5t20 48.5t49 20.5q28 0 48.5 -20.5t20.5 -48.5z" />
    <glyph glyph-name="perthousand" unicode="&#x2030;" horiz-adv-x="1214" 
d="M365 570q0 -40 -13 -75t-35.5 -61t-54 -40.5t-68.5 -14.5t-68 14.5t-53 40.5t-34.5 61t-12.5 75q0 41 12.5 76t35 61t54 40.5t68.5 14.5t68 -14.5t53.5 -40.5t35 -61t12.5 -76zM220 -6l-70 6l441 762l71 -5zM1187 183q0 -41 -13 -76t-35.5 -60.5t-54 -40t-68.5 -14.5
t-68 14.5t-53 40t-34.5 60.5t-12.5 76t12.5 75.5t35 60.5t54 40.5t68.5 14.5t68 -14.5t53.5 -40.5t35 -60.5t12.5 -75.5zM786 183q0 -41 -12.5 -76t-35 -60.5t-53.5 -40t-68 -14.5t-68 14.5t-53.5 40t-35 60.5t-12.5 76t12.5 75.5t35 60.5t54 40.5t68.5 14.5t68 -14.5
t53 -40.5t34.5 -60.5t12.5 -75.5zM286 570q0 52 -24.5 87t-65.5 35q-42 0 -67.5 -34.5t-25.5 -87.5q0 -51 25 -86t67 -35t66.5 34.5t24.5 86.5zM1109 183q0 51 -24.5 86t-66.5 35t-67 -34.5t-25 -86.5t24.5 -87t66.5 -35t67 34.5t25 87.5zM708 183q0 51 -24.5 86t-66.5 35
t-66.5 -34.5t-24.5 -86.5t24.5 -87t66.5 -35t66.5 34.5t24.5 87.5z" />
    <glyph glyph-name="guilsinglleft" unicode="&#x2039;" horiz-adv-x="310" 
d="M189 43l-159 208l159 207l64 -48l-123 -159l125 -159z" />
    <glyph glyph-name="guilsinglright" unicode="&#x203a;" horiz-adv-x="310" 
d="M121 43l-66 49l125 159l-124 159l65 48l158 -207z" />
    <glyph glyph-name="trademark" unicode="&#x2122;" horiz-adv-x="538" 
d="M137 705v-192h-51v192h-54v49h158v-49h-53zM438 513l-22 140h-3l-53 -143h-31l-51 143h-3l-24 -140h-52l46 241h44l56 -147l58 147h44l44 -241h-53z" />
    <glyph glyph-name="NUL" horiz-adv-x="0" 
 />
    <glyph glyph-name="notequal" horiz-adv-x="420" 
d="M50 328v97h320v-97h-320z" />
    <glyph glyph-name="infinity" horiz-adv-x="157" 
d="M130 648l-40 23l1 -47h-25l1 47l-40 -23l-12 19l43 23l-43 24l12 19l40 -25l-1 48h25l-1 -48l41 25l10 -19l-42 -24l42 -23z" />
    <glyph glyph-name="lessequal" horiz-adv-x="310" 
d="M241 -122q-44 45 -80.5 101t-62.5 119.5t-40.5 133.5t-14.5 142t14.5 141.5t40.5 133t62.5 119.5t80.5 101l76 -63q-82 -96 -125.5 -206t-43.5 -225t44 -226t125 -208z" />
    <glyph glyph-name="greaterequal" horiz-adv-x="310" 
d="M258 374q0 -72 -14.5 -142t-41 -133.5t-62.5 -119.5t-80 -101l-76 63q81 97 125 208t44 226t-43.5 225t-125.5 206l76 63q44 -45 80 -101t62.5 -119.5t41 -133t14.5 -141.5z" />
    <glyph glyph-name="partialdiff" 
d="M43 -118v95h116v793h-116v96h223v-984h-223z" />
    <glyph glyph-name="summation" 
d="M58 -118v984h223v-96h-116v-793h116v-95h-223z" />
    <glyph glyph-name="product" horiz-adv-x="577" 
d="M393 637q0 48 -27.5 75t-74.5 27q-41 0 -70 -24.5t-29 -80.5v-141h123v-97h-123v-396h-114v396h-58v97h58v145q0 47 15 84t43 63t67.5 40t88.5 14q103 0 159 -55t56 -147h-114zM507 -66q0 -46 -13.5 -81.5t-36.5 -60t-55 -37t-69 -12.5q-14 0 -32.5 3.5t-31.5 9.5v100
q12 -5 25 -8.5t27 -3.5q37 0 54 23.5t17 80.5v545h115v-559v0z" />
    <glyph glyph-name="pi" horiz-adv-x="833" 
d="M816 377q0 -81 -30 -152.5t-83 -125t-125.5 -84t-158.5 -30.5q-87 0 -160 31t-126 84t-83 125t-30 153t30 152t83 124.5t125.5 84t158.5 30.5t159 -30.5t126.5 -84t83.5 -125t30 -152.5zM770 377q0 72 -27 135t-74 110t-111.5 74.5t-139.5 27.5q-76 0 -140.5 -27
t-111.5 -74t-73.5 -110.5t-26.5 -135.5t27 -135.5t74 -110.5t111.5 -74.5t139.5 -27.5q76 0 140.5 27t111.5 73.5t73.5 110.5t26.5 137zM572 467q0 -57 -37 -93t-102 -36h-53v-176h-72v434h125q64 0 101.5 -36t37.5 -93zM499 467q0 33 -20 50.5t-65 17.5h-34v-136h34
q45 0 65 17.5t20 50.5z" />
    <glyph glyph-name="integral" horiz-adv-x="919" 
d="M386 670q-7 29 -31.5 49t-62.5 20q-41 0 -70.5 -24.5t-29.5 -80.5v-141h190v143q0 8 1 18t3 16zM696 635q0 48 -26 76t-74 28q-47 0 -73.5 -27t-26.5 -78v-141h200v142zM903 493v-97h-93v-396h-114v396h-200v-396h-114v396h-190v-396h-114v396h-58v97h58v145q0 94 58 147
t156 53q51 0 88 -13.5t63 -38.5q26 25 65.5 38.5t87.5 13.5q102 0 158 -54.5t56 -146.5v-144h93z" />
    <glyph glyph-name="Omega" horiz-adv-x="617" 
d="M495 396v-396h-113v396h-190v-396h-114v396h-58v97h58v145q0 47 15 84t43 63t67.5 40t88.5 14q46 0 82 -12t62 -33q21 23 52 34t67 11q14 0 32.5 -3.5t30.5 -9.5v-101q-11 5 -24 9t-26 4q-37 0 -55 -23.5t-18 -80.5v-141h123v-97h-123zM384 674q-8 27 -32.5 46t-60.5 19
q-41 0 -70 -24.5t-29 -80.5v-141h190v145v18q0 10 2 18z" />
    <glyph glyph-name="radical" horiz-adv-x="882" 
d="M696 0v634q0 49 -26 77t-74 28q-47 0 -73.5 -27t-26.5 -78v-141h123v-97h-123v-396h-114v396h-190v-396h-114v396h-58v97h58v145q0 94 58 147t156 53q51 0 88 -13.5t63 -38.5q26 25 65.5 38.5t87.5 13.5q102 0 158 -54t56 -146v-638h-114zM386 670q-7 29 -31.5 49
t-62.5 20q-41 0 -70.5 -24.5t-29.5 -80.5v-141h190v143q0 8 1 18t3 16z" />
    <glyph glyph-name="approxequal" horiz-adv-x="882" 
d="M697 637q0 48 -27.5 75t-74.5 27q-41 0 -70 -24.5t-29 -80.5v-141h123v-97h-123v-396h-114v396h-190v-396h-114v396h-58v97h58v145q0 47 15 84t43 63t67.5 40t88.5 14q51 0 88 -14t63 -39q56 53 153 53q103 0 158.5 -55t55.5 -147h-113zM697 0v493h113v-493h-113z
M385 671q-6 29 -31.5 48.5t-61.5 19.5q-41 0 -70.5 -24.5t-29.5 -80.5v-141h190v143q0 9 0.5 18.5t2.5 16.5z" />
    <glyph glyph-name="Delta" 
d="M286 -121q-91 0 -137 42t-46 130v183q0 40 -19.5 64t-51.5 24v103q32 0 51.5 24.5t19.5 64.5v182q0 88 46 130t137 42v-96q-43 0 -59.5 -22t-16.5 -81v-173q0 -54 -19.5 -81.5t-61.5 -39.5v-2q42 -11 61.5 -39t19.5 -82v-174q0 -30 4 -49.5t13 -31.5t23.5 -17t35.5 -5
v-96v0z" />
    <glyph glyph-name="nonbreakingspace" horiz-adv-x="256" 
 />
    <glyph glyph-name="lozenge" horiz-adv-x="900" 
d="M343 345v-209h-72v209h-208v72h208v209h72v-209h209v-71h20v-107h1q13 21 39 21q42 0 42 -49v-80h-20v76q0 17 -6 26t-23 9q-16 0 -24.5 -12.5t-8.5 -31.5v-67h-21v214h-208zM817 195q0 -29 -17 -48t-44 -19q-31 0 -45 22h-1v-90h-22v196h22v-19h1q8 11 19.5 17t25.5 6
q28 0 44.5 -19t16.5 -46zM797 194q0 20 -12 33.5t-32 13.5t-32 -13t-12 -33t11 -35t33 -15q20 0 32 15t12 34z" />
    <glyph glyph-name="apple" horiz-adv-x="967" 
d="M101 0v750h767v-750h-767zM853 -104l-3 20l-10 -21h-2l-10 21l-3 -20h-6l6 34h1l13 -26l13 26h1l6 -34h-6zM806 -87q0 -8 -4.5 -13t-12.5 -5t-12.5 5t-4.5 12q0 8 5 13t13 5q7 0 11.5 -5t4.5 -12zM757 -102q-3 -3 -10 -3q-18 0 -18 17q0 8 5 13t13 5q7 0 11 -3l-2 -5
q-3 3 -9 3q-5 0 -8.5 -3.5t-3.5 -8.5q0 -13 13 -13q4 0 10 4zM689 -90v-14h-6v14l-14 19l6 1l11 -15l9 14h7zM650 -104v15h-16v-15h-6v33h6v-13h16v13h6v-33h-6zM612 -82q0 -12 -17 -12v-10h-6v33q14 2 18.5 -2t4.5 -9zM570 -104l-4 8h-14l-3 -8h-6l15 34h2l16 -34h-6z
M527 -104l-8 11h-5v-11h-6v33q14 2 18.5 -1.5t4.5 -8.5q0 -7 -7 -10l10 -13h-7zM491 -101q-6 -4 -13 -4q-8 0 -13 4.5t-5 12.5t5.5 13t13.5 5q6 0 12 -4l-2 -5q-4 4 -11 4q-12 0 -12 -13q0 -12 13 -12q2 0 6 2v7h-9v5h15v-15v0zM447 -87q0 -8 -4.5 -13t-12.5 -5t-12.5 5
t-4.5 12q0 8 5 13t13 5q7 0 11.5 -5t4.5 -12zM400 -82q0 -12 -17 -12v-10h-6v33q14 2 18.5 -2t4.5 -9zM351 -90v-14h-6v14l-14 19l6 1l11 -15l9 14h7zM323 -76h-12v-28h-6v28h-12v5h30v-5zM255 -105h-1l-11 23l-10 -23h-1l-12 34l6 1l7 -23l10 23h1l10 -23l7 22h6zM199 -105
h-1l-11 23l-10 -23h-1l-12 34l6 1l7 -23l10 23h1l10 -23l7 22h6zM143 -105h-1l-11 23l-10 -23h-1l-12 34l6 1l7 -23l10 23h1l10 -23l7 22h6zM716 -101q0 -4 -4 -4t-4 4t4 4t4 -4zM284 -101q0 -4 -4 -4t-4 4t4 4t4 -4zM559 691q0 5 -1 7q-2 -1 -17 -1t-18 1v-7q0 -3 -1 -5h2
q1 3 3 5q4 4 7 4t3 -3v-23q0 -3 -2 -5q-1 -1 -3 0v-2h17v2q-1 -1 -2 0q-3 3 -3 5v23q0 3 3 3q4 0 8 -4q2 -2 2 -5h2v5zM504 664q-1 -1 -3 0q-3 2 -3 5v21q0 4 3 5q2 1 3 0v2h-18v-1v-1q2 1 3 0q2 -2 2 -5v-9h-17v9q0 2 3 5q1 1 2 0v1v1h-17v-2q2 1 3 0q2 -2 2 -5v-21
q0 -2 -2 -4q-1 -1 -3 -1v-2h17v2q-1 0 -2 1q-3 3 -3 4v10h17v-10q0 -3 -2 -5q-1 -1 -3 0v-2h18v2zM439 664q-1 -1 -2 0q-3 3 -3 5v21q0 2 3 5q1 1 2 0v2h-29l-2 -10l2 -1q0 2 2 4q4 4 7 4h4q4 0 4 -3v-10h-4q-2 0 -5 3q-1 1 -1 2h-2v-13h2q0 1 1 3q2 3 5 3h4v-11q0 -3 -4 -3
h-4q-2 0 -4 1.5t-4 3.5t-2 4l-2 -1l2 -11h30v2v0zM827 624h-685v-6h685v6zM696 540q0 15 -11.5 26.5t-25.5 11.5q-7 0 -15 -5t-8 -17q0 -16 11.5 -27t25.5 -11q7 0 15 5t8 17zM589 537q0 12 -14 17q5 3 5 9q0 5 -5 10t-16 5q-13 0 -13 -11q0 -6 5 -6q4 0 4 3t-1.5 3.5
t-1.5 2.5q0 5 7 5q10 0 10 -12q0 -4 -2 -6q-16 2 -16 -6q0 -6 8 -6q6 0 11 5q6 -4 6 -15q0 -14 -12 -14t-12 9q0 3 3 3q1 0 2 -1t3 -1q4 0 4 5t-7 5q-9 0 -9 -10q0 -13 16 -13q13 0 19 5.5t6 13.5zM295 537q0 12 -14 17q5 3 5 9q0 5 -5 10t-16 5q-13 0 -13 -11q0 -6 5 -6
q4 0 4 3t-1.5 3.5t-1.5 2.5q0 5 7 5q10 0 10 -12q0 -4 -2 -6q-16 2 -16 -6q0 -6 8 -6q6 0 11 5q6 -4 6 -15q0 -14 -12 -14t-12 9q0 3 3 3q1 0 2 -1t3 -1q4 0 4 5t-7 5q-9 0 -9 -10q0 -13 16 -13q13 0 19 5.5t6 13.5zM820 522q-2 0 -4 1q-5 2 -6 7l-7 35q-1 5 3 7q2 1 4 1
l-1 3h-28l1 -3q2 0 4 -1q4 -2 5 -7l3 -15h-24l-3 15q-1 5 3 7q2 1 4 1l-1 3h-29l1 -3q2 0 4 -1t3.5 -2t2.5 -5l7 -35q1 -5 -3 -7q-2 -1 -4 -1l1 -3h29l-1 3q-2 0 -4 1q-5 2 -6 7l-3 16h24l3 -16q1 -5 -3 -7q-2 -1 -4 -1l1 -3h29l-1 3v0zM497 522q-2 0 -4 1q-5 2 -6 7l-7 35
q-1 5 3 7q2 1 4 1l-1 3h-45q1 -2 0.5 -4.5t-0.5 -5.5v-7h4q-1 4 1 7q4 6 12 6h4q5 0 6 -6l3 -16h-4q-3 0 -5 1.5t-4 3.5t-3 4h-3l5 -23h3q0 3 1 6q2 5 7 5h4l3 -17q1 -5 -3 -7q-2 -1 -4 -1l1 -3h29zM202 522q-2 0 -4 1q-5 2 -6 7l-7 35q-1 5 3 7q2 1 4 1l-1 3h-27
q-20 0 -20 -15q0 -6 5.5 -10t13.5 -5l-9 -16q-2 -5 -9 -7q-3 -1 -5 -1l1 -3h19l12 23q2 3 5 3l3 -15q1 -5 -3 -7q-2 -1 -4 -1l1 -3h29l-1 3v0zM400 521q0 2 -3 5t-10 4q-4 3 -4.5 10.5t-2 16t-6 15t-16.5 6.5q-5 0 -9 -3.5t-4 -6.5q0 -5 5 -5q4 0 4 6t5 6t6.5 -5t2.5 -12
t3.5 -14.5t8.5 -13.5q-11 0 -14.5 -6.5t-8.5 -6.5t-5 4q0 2 1 2.5t1 2.5q0 5 -5 5t-5 -7q0 -5 5 -8.5t10 -3.5q7 0 10 2t5 4.5t4 4.5t6 2q4 -7 12 -7q4 0 4 3zM827 481h-685v-6h685v6zM827 440h-147v-62h36v28h11v-65h-14v-33h81v33h-14v65h11v-28h36v62zM648 440h-81v-34
h11l-15 -23l-15 23h10v34h-62v-34h12l37 -46v-19h-14v-33h81v33h-15v20l37 45h14v34zM458 341h-14v65h14v34h-96q-22 0 -34.5 -11.5t-12.5 -28.5t12.5 -28.5t34.5 -11.5h30v-19h-15v-33h81v33zM283 341h-14v65h14v34h-141v-62h41v28h33v-20h-24v-24h24v-21h-33v28h-41v-61
h141v33zM827 277h-685v-6h685v6zM728 192q0 15 -11.5 26.5t-25.5 11.5q-7 0 -15 -5t-8 -17q0 -16 11.5 -27t25.5 -11q7 0 15 5t8 17zM203 217q-3 5 -6.5 9t-11.5 4q-15 0 -14 -23q-3 10 -8 16.5t-13 6.5q-5 0 -8.5 -3t-3.5 -9l3 -1q0 6 8 6q10 0 15.5 -10.5t8.5 -22.5
q3 -10 -1 -14q-2 -2 -5 -1l1 -4h28l-1 4q-2 -1 -4 0q-3 2 -6 9q-5 17 -5 25q0 13 9 13q5 0 7.5 -2.5l4.5 -4.5l2 2v0zM822 174q-2 0 -4 1q-5 2 -6 7l-7 35q-1 5 3 7q2 1 4 1l-1 3h-45q1 -2 0.5 -4.5t-0.5 -5.5v-7h4q-1 4 1 7q4 6 12 6h4q5 0 6 -6l3 -16h-4q-4 0 -9 5
q-2 2 -3 4h-3l5 -23h3q0 3 1 6q2 5 7 5h4l3 -17q1 -5 -3 -7q-2 -1 -4 -1l1 -3h29zM620 228h-29l1 -3q2 0 4 -1q5 -2 6 -8l5 -21q2 -10 1 -15t-12 -5q-8 0 -13 6.5t-7 15.5l-4 19q-1 7 3 9q2 1 4 0v3h-24l1 -3q2 0 5 -1q5 -2 6 -8l4 -19q2 -8 8 -17.5t20 -9.5q17 0 19 8t0 16
l-5 22q-1 7 3 9q2 1 5 0zM522 174q-1 0 -3 1q-3 2 -6 9l-7 32q-1 6 3 8q2 1 5 1l-1 3h-14l-29 -42l-5 30q-1 6 3 8q2 1 4 1l-1 3h-21l1 -3q2 0 4 -1q4 -2 5 -8l8 -45l3 -1l30 44l6 -30q1 -7 -2 -9q-2 -1 -4 -1l1 -3h21l-1 3v0zM413 175q-2 -1 -4 0q-3 2 -6 9l-8 31
q-3 9 8 10l-1 3h-30q-9 0 -17 -5.5t-8 -16.5q0 -16 11 -25.5t24 -9.5h32zM306 174q-2 0 -4 1q-5 2 -6 7l-7 35q-1 5 3 7q2 1 4 1l-1 3h-27q-20 0 -20 -15q0 -6 5.5 -10t13.5 -5l-9 -16q-2 -5 -9 -7q-3 -1 -5 -1l1 -3h19l12 23q2 3 5 3l3 -15q1 -5 -3 -7q-2 -1 -4 -1l1 -3h29
l-1 3v0zM827 133h-685v-6h685v6zM694 48q-1 0 -3 1q-3 2 -3 4v20q0 3 3 4q2 1 3 2v2h-10l-24 -26v18q0 4 3 5q2 1 3 1v2h-15v-2q1 0 3 -1q3 -1 3 -5v-28h3l25 28v-20q0 -2 -2 -4q-1 -1 -3 -1v-2h14v2zM633 48q-1 -1 -2 0q-3 3 -3 5v21q0 2 3 5q1 1 2 0v2h-29l-2 -10l2 -1
q0 2 2 4q4 4 7 4h4q4 0 4 -3v-10h-4q-2 0 -5 3q-1 1 -1 2h-2v-13h2q0 1 1 3q2 3 5 3h4v-11q0 -3 -4 -3h-4q-3 0 -8 5q-2 2 -2 4l-2 -1l2 -11h30v2v0zM568 81v-2q1 0 2 -1t0 -4l-9 -19l-5 10l4 8q1 2 4 5q1 1 2 1v2h-26l1 -2q1 0 2 -1l2 -2l3 -3l3 -5l-7 -13l-8 18q-1 4 0 5
t2 1v2h-13v-2q1 0 2 -1l2 -2t2 -3l13 -27h1h1l8 16l9 -16h1l12 27l3 3l2 2t2 1v2h-15zM480 81h-15v-2q1 0 2 -1t-1 -4l-6 -9l-6 9q-1 3 0 4t3 1v2h-15v-2q1 0 3 -1q4 -2 5 -4l8 -12v-8q0 -3 -2 -5q-1 -1 -3 -1v-2h17v2q-1 0 -2 1q-3 3 -3 5v8l8 12q2 2 3 2.5t2 1.5t2 1v2z
M425 64q0 8 -5 13t-15 5t-15 -5t-5 -13t5 -13.5t15 -5.5t15 5.5t5 13.5zM364 48q-1 0 -2 1q-3 3 -3 4v20q0 2 3 5q1 1 2 1v2h-18q-13 0 -13 -9q0 -5 9 -9l-7 -10q-3 -3 -5 -4t-3 -1v-2h11l7 12q3 4 7 4v-9q0 -2 -2 -4q-1 -1 -3 -1v-2h17v2zM309 48q-1 0 -3 1q-3 2 -3 5v20
q0 3 3 4q2 1 3 1v2h-18v-2q1 0 3 -1q3 -1 3 -4v-9q-2 0 -4 2l-8 8l-1 3q1 1 2 1v2h-14v-2q1 0 3 -1q5 -2 5 -3l10 -9l-13 -13q-2 -2 -4 -3t-3 -2v-2h17v2q-1 0 -2 1q-2 2 0 4l8 8q2 2 4 2v-9q0 -3 -3 -5q-2 -1 -3 -1v-2h18v2zM606 -83q0 8 -11 7v-13q11 0 11 6zM525 -82
q0 8 -11 6v-12q11 -1 11 6zM394 -83q0 8 -11 7v-13q11 0 11 6zM559 -80l-5 -12h10zM800 -88q0 13 -11 13t-11 -12q0 -13 11 -13t11 12zM441 -88q0 13 -11 13t-11 -12q0 -13 11 -13t11 12zM171 548q-8 0 -11.5 5t-3.5 10q0 9 8 9t9 -5l3 -19h-5zM566 553q-3 -4 -7 -4t-4 2
q0 3 4 3q5 0 7 -1zM272 553q-3 -4 -7 -4t-4 2q0 3 4 3q5 0 7 -1zM684 535q0 -13 -11 -13q-9 0 -17 11.5t-8 26.5q0 14 11 14q9 0 17 -11.5t8 -27.5zM381 384q-13 0 -13 11t13 11h11v-22h-11zM275 200q-8 0 -11.5 5t-3.5 10q0 9 8 9t9 -5l3 -19h-5zM716 187q0 -13 -11 -13
q-9 0 -17 11.5t-8 26.5q0 14 11 14q9 0 17 -11.5t8 -27.5zM393 182q0 -7 -4 -7h-5q-11 0 -18.5 10t-7.5 22q0 17 14 17h6q3 -1 3.5 -1.5t2.5 -5.5l9 -35v0zM553 79q5 0 0 -9q-5 9 0 9zM349 64q-8 0 -8 8q0 6 7 6q4 0 4 -4v-10h-3zM417 64q0 -7 -2.5 -12t-9.5 -5q-6 0 -9 5
t-3 12q0 16 12 16t12 -16z" />
    </font>
</defs>
</svg>
